<?xml version="1.0" encoding="UTF-8"?>
<!DOCTYPE svg PUBLIC "-//W3C//DTD SVG 1.1//EN" "http://www.w3.org/Graphics/SVG/1.1/DTD/svg11.dtd">
<!-- Creator: CorelDRAW 2018 (64 Bit Versão de avaliação) -->
<svg xmlns="http://www.w3.org/2000/svg" xml:space="preserve" width="24.0614mm" height="33.2895mm" version="1.1" style="shape-rendering:geometricPrecision; text-rendering:geometricPrecision; image-rendering:optimizeQuality; fill-rule:evenodd; clip-rule:evenodd"
viewBox="0 0 2364.45 3271.28"
 xmlns:xlink="http://www.w3.org/1999/xlink">
 <defs>
  <style type="text/css">
   <![CDATA[
    .fil5 {fill:none}
    .fil2 {fill:#08A045}
    .fil4 {fill:#0B6E4F}
    .fil3 {fill:#6BBF59}
    .fil1 {fill:#FED141}
    .fil0 {fill:white}
    .fil7 {fill:#073B3A;fill-rule:nonzero}
    .fil8 {fill:#1A1A1A;fill-rule:nonzero}
    .fil6 {fill:white;fill-rule:nonzero}
   ]]>
  </style>
     <clipPath id="id0">
      <path d="M1485.94 1939.55c345.5,0 625.57,-280.08 625.57,-625.58 0,-345.5 -280.07,-625.58 -625.57,-625.58 -345.5,0 -625.58,280.08 -625.58,625.58 0,345.5 280.08,625.58 625.58,625.58z"/>
     </clipPath>
 </defs>
 <g id="Camada_x0020_1">
  <metadata id="CorelCorpID_0Corel-Layer"/>
  <g id="_2266615072656">
   <g>
    <path class="fil0" d="M1638.69 240.82c556.16,321.1 471.8,174.98 471.8,817.18 0,642.2 84.36,496.07 -471.8,817.18 -556.16,321.1 -387.45,321.1 -943.6,0 -556.16,-321.11 -471.79,-174.99 -471.79,-817.18 0,-642.21 -84.36,-496.08 471.79,-817.18 556.16,-321.1 387.45,-321.1 943.6,0z"/>
    <path class="fil1" d="M1607.77 295.63c519.7,300.04 440.88,163.52 440.88,763.62 0,5.79 0.02,11.4 0.03,17.04l0 0.53 -1763.57 0 0.01 -2.11c0.01,-5.12 0.03,-10.21 0.03,-15.46 0,-600.09 -78.82,-463.58 440.88,-763.62 519.7,-300.05 362.05,-300.05 881.74,0z"/>
    <path class="fil2" d="M2048.72 1091.37c1.48,579.73 73.61,448.97 -440.92,746.05 -519.69,300.04 -362.05,300.04 -881.74,0 -514.53,-297.07 -442.39,-166.32 -440.91,-746.05l1763.57 0z"/>
    <path class="fil3" d="M1827.5 907.75l-1322.62 0 0 -336.08c0,-121.75 98.7,-220.44 220.44,-220.44 121.74,0 220.43,98.69 220.43,220.44 0,-121.75 98.7,-220.44 220.44,-220.44 121.74,0 220.43,98.69 220.43,220.44 0,-121.75 98.69,-220.44 220.43,-220.44 121.74,0 220.43,98.69 220.43,220.44l0 336.08zm-220.43 -582.28c53.26,0 96.44,-43.17 96.44,-96.44 0,-53.26 -43.18,-96.44 -96.44,-96.44 -53.26,0 -96.44,43.18 -96.44,96.44 0,53.27 43.18,96.44 96.44,96.44zm-440.87 0c53.26,0 96.44,-43.17 96.44,-96.44 0,-53.26 -43.18,-96.44 -96.44,-96.44 -53.27,0 -96.45,43.18 -96.45,96.44 0,53.27 43.18,96.44 96.45,96.44zm-440.88 0c53.26,0 96.44,-43.17 96.44,-96.44 0,-53.26 -43.18,-96.44 -96.44,-96.44 -53.26,0 -96.44,43.18 -96.44,96.44 0,53.27 43.18,96.44 96.44,96.44z"/>
    <path class="fil2" d="M1828.21 549.28c66.88,0 121.1,-51.33 121.1,-114.66 0,-63.33 -54.22,-114.67 -121.1,-114.67 -66.9,0 -121.12,51.33 -121.12,114.67 0,63.32 54.22,114.66 121.12,114.66zm-1543.07 592.51l0 -362.14c0,-115.26 98.69,-208.69 220.43,-208.69 121.75,0 220.44,93.43 220.44,208.69 0,-115.26 98.69,-208.69 220.43,-208.69 121.74,0 220.43,93.43 220.43,208.69 0,-115.26 98.7,-208.69 220.44,-208.69 121.74,0 220.43,93.43 220.43,208.69 0,-115.26 98.69,-208.69 220.44,-208.69 121.74,0 220.43,93.43 220.43,208.69l0 362.14 -1763.5 0zm220.43 -592.51c66.9,0 121.12,-51.33 121.12,-114.66 0,-63.33 -54.22,-114.67 -121.12,-114.67 -66.88,0 -121.11,51.33 -121.11,114.67 0,63.32 54.23,114.66 121.11,114.66zm440.88 0c66.89,0 121.11,-51.33 121.11,-114.66 0,-63.33 -54.22,-114.67 -121.11,-114.67 -66.89,0 -121.11,51.33 -121.11,114.67 0,63.32 54.22,114.66 121.11,114.66zm440.88 0c66.89,0 121.11,-51.33 121.11,-114.66 0,-63.33 -54.22,-114.67 -121.11,-114.67 -66.9,0 -121.12,51.33 -121.12,114.67 0,63.32 54.22,114.66 121.12,114.66z"/>
    <path class="fil0" d="M1372.16 1217.16c53.46,-53.46 140.14,-53.46 193.61,0 53.46,53.47 53.46,140.15 0,193.61l-611.22 611.22c-53.47,53.46 -140.15,53.46 -193.61,0 -53.46,-53.47 -53.46,-140.15 0,-193.61l611.22 -611.22z"/>
    <path class="fil1" d="M1012.12 1006.06c38.54,2.72 75.8,6.86 111.8,12.41 5.02,0.8 10.04,1.63 15.05,2.51 1.86,0.23 3.72,0.46 5.58,0.7 12.69,2.2 22.87,7.41 30.53,15.61 3.81,4.01 7.03,8.76 9.61,14.22l75.98 153.88c8.46,14.56 14.42,23.81 17.85,27.74l45.04 51.16c2.55,2.93 4.86,5.95 6.96,9.06 13.04,18.87 18.1,41.08 15.2,66.63 -1.12,11.17 -2.28,22 -3.49,32.48 -0.05,0.76 -0.1,1.49 -0.14,2.23 -2.5,21.17 -5.2,40.92 -8.09,59.24 0,57.15 0,114.3 0,171.46 -0.05,7.98 -2.89,14.76 -8.51,20.35 -5.09,5.12 -11.12,7.91 -18.11,8.36l-68.73 -0.01c-6.99,-0.44 -12.98,-3.23 -17.98,-8.36 -5.54,-5.41 -8.42,-11.96 -8.65,-19.65l0 -56.17c-97.99,6.72 -196.14,10.06 -294.42,10.04 -74.29,0.01 -148.5,-1.9 -222.63,-5.72 -6.13,-0.31 -12.26,-0.64 -18.41,-0.98 -17.85,-1.01 -35.68,-2.12 -53.53,-3.34l0 56.17c-0.18,7.69 -3.02,14.24 -8.5,19.65 -5.05,5.13 -11.09,7.92 -18.13,8.36l-68.72 0c-7.04,-0.44 -13.13,-3.23 -18.27,-8.36 -5.57,-5.58 -8.35,-12.36 -8.36,-20.35 0,-57.14 0,-114.29 0,-171.45 -2.9,-18.33 -5.59,-38.08 -8.09,-59.24 -0.05,-0.75 -0.09,-1.48 -0.14,-2.23 -1.21,-10.49 -2.37,-21.3 -3.49,-32.48 -2.9,-25.55 2.16,-47.77 15.2,-66.63 2.09,-3.12 4.41,-6.13 6.97,-9.06l45.03 -51.16c3.48,-3.94 9.47,-13.18 17.98,-27.74l75.98 -153.89c2.55,-5.45 5.71,-10.2 9.47,-14.22 7.66,-8.2 17.84,-13.4 30.53,-15.61 1.81,-0.24 3.63,-0.46 5.44,-0.7 5.05,-0.86 10.12,-1.7 15.19,-2.51 36,-5.54 73.27,-9.68 111.8,-12.4 54.99,-4.14 134.21,-4.17 189.17,0zm-140.25 45.16c-0.87,0.04 -1.76,0.09 -2.64,0.14l-34.57 1.4c-2.55,0.25 -5.05,0.47 -7.54,0.7 -26.63,1.61 -52.75,3.84 -78.34,6.69 -8.37,1 -16.7,2.07 -24.95,3.2 -0.71,0.05 -1.41,0.1 -2.09,0.14 -4.8,0.74 -9.12,2.03 -12.97,3.91 -7.91,3.58 -13.95,9.43 -18.12,17.56l-45.16 96.04c13.38,-0.71 26.77,-1.36 40.15,-1.95 77.39,-3.42 154.65,-5.19 231.82,-5.31 77.12,0.12 154.36,1.89 231.7,5.31 13.38,0.59 26.77,1.25 40.15,1.95l-45.31 -96.04c-4.08,-8.13 -10.02,-13.98 -17.85,-17.56 -3.89,-1.88 -8.26,-3.17 -13.1,-3.91 -0.65,-0.04 -1.31,-0.09 -1.96,-0.14 -8.22,-1.13 -16.48,-2.2 -24.81,-3.2 -25.68,-2.85 -51.9,-5.08 -78.62,-6.69 -2.44,-0.23 -4.9,-0.45 -7.39,-0.7l-34.57 -1.4c-0.88,-0.05 -1.76,-0.1 -2.64,-0.14 -0.47,-0.05 -0.93,-0.1 -1.4,-0.15 -14.13,-0.37 -28.86,-0.65 -44.19,-0.84 -15.39,0.18 -30.17,0.46 -44.34,0.84 -0.41,0.05 -0.84,0.09 -1.26,0.15zm-109.43 315.3c42.88,42.9 94.56,64.38 155.02,64.39 1.07,0 2.14,0 3.21,0l0.14 0c59.03,-0.75 109.63,-22.21 151.81,-64.39 6.78,-6.8 13,-13.82 18.68,-21.05l-347.68 0c5.72,7.23 12,14.25 18.82,21.05zm-126.99 -61.05c-9.39,-9.46 -20.78,-14.21 -34.16,-14.22 -13.47,0.01 -24.95,4.75 -34.43,14.22 -9.47,9.38 -14.21,20.77 -14.22,34.15 0.01,13.46 4.75,24.94 14.22,34.43 9.48,9.46 20.96,14.2 34.43,14.22 13.37,-0.02 24.76,-4.76 34.16,-14.22 9.51,-9.49 14.3,-20.97 14.36,-34.43 -0.06,-13.38 -4.85,-24.76 -14.36,-34.15zm564.31 0c-9.52,9.38 -14.31,20.77 -14.37,34.15 0.06,13.46 4.84,24.94 14.37,34.43 9.39,9.46 20.77,14.2 34.16,14.22 13.46,-0.02 24.94,-4.76 34.42,-14.22 9.46,-9.49 14.2,-20.97 14.22,-34.43 -0.02,-13.37 -4.75,-24.75 -14.22,-34.15 -9.48,-9.46 -20.96,-14.21 -34.42,-14.22 -13.38,0.01 -24.76,4.76 -34.16,14.22z"/>
    <path class="fil1" d="M1485.94 1939.55c345.5,0 625.57,-280.08 625.57,-625.58 0,-345.5 -280.07,-625.58 -625.57,-625.58 -345.5,0 -625.58,280.08 -625.58,625.58 0,345.5 280.08,625.58 625.58,625.58z"/>
    <g style="clip-path:url(#id0)">
     <g>
      <path id="1" class="fil4" d="M1238.99 791.08c63.17,4.47 124.24,11.25 183.24,20.34 8.22,1.31 16.45,2.68 24.67,4.11 3.04,0.37 6.09,0.75 9.14,1.14 20.8,3.62 37.48,12.15 50.04,25.59 6.26,6.58 11.52,14.35 15.76,23.31l124.51 252.2c13.88,23.86 23.62,39.01 29.24,45.46l73.81 83.84c4.18,4.8 7.98,9.74 11.42,14.85 21.36,30.92 29.66,67.31 24.9,109.19 -1.84,18.31 -3.73,36.05 -5.71,53.23 -0.09,1.23 -0.16,2.44 -0.23,3.66 -4.1,34.69 -8.52,67.05 -13.26,97.09 0,93.66 0,187.33 0,280.99 -0.08,13.09 -4.74,24.2 -13.94,33.36 -8.33,8.4 -18.24,12.96 -29.7,13.7l-112.63 0c-11.45,-0.74 -21.27,-5.31 -29.47,-13.71 -9.08,-8.88 -13.8,-19.61 -14.16,-32.21l0 -92.07c-160.62,11.03 -321.46,16.5 -482.54,16.46 -121.75,0.03 -243.39,-3.11 -364.88,-9.37 -10.05,-0.51 -20.1,-1.04 -30.16,-1.6 -29.24,-1.66 -58.49,-3.49 -87.73,-5.48l0 92.07c-0.29,12.6 -4.94,23.33 -13.93,32.21 -8.27,8.4 -18.19,12.97 -29.71,13.71l-112.63 0c-11.54,-0.74 -21.51,-5.31 -29.93,-13.71 -9.13,-9.15 -13.7,-20.27 -13.71,-33.35 0,-93.67 0,-187.33 0,-281 -4.75,-30.03 -9.16,-62.4 -13.25,-97.09 -0.08,-1.21 -0.16,-2.42 -0.24,-3.65 -1.97,-17.18 -3.88,-34.92 -5.71,-53.23 -4.76,-41.88 3.54,-78.28 24.9,-109.2 3.44,-5.1 7.24,-10.04 11.43,-14.85l73.8 -83.83c5.7,-6.46 15.52,-21.61 29.47,-45.47l124.51 -252.2c4.18,-8.95 9.36,-16.72 15.54,-23.3 12.56,-13.44 29.23,-21.97 50.04,-25.6 2.97,-0.38 5.95,-0.76 8.91,-1.14 8.29,-1.42 16.6,-2.79 24.91,-4.11 58.99,-9.09 120.07,-15.87 183.23,-20.33 90.12,-6.77 219.95,-6.83 310.03,0zm-229.84 74.02c-1.45,0.07 -2.9,0.14 -4.34,0.23l-56.66 2.28c-4.17,0.4 -8.27,0.79 -12.34,1.15 -43.66,2.64 -86.46,6.3 -128.4,10.97 -13.73,1.64 -27.37,3.39 -40.9,5.25 -1.15,0.09 -2.29,0.16 -3.43,0.24 -7.85,1.2 -14.94,3.33 -21.25,6.4 -12.98,5.87 -22.88,15.46 -29.71,28.78l-74.02 157.4c21.94,-1.16 43.88,-2.22 65.81,-3.2 126.82,-5.6 253.47,-8.49 379.95,-8.69 126.39,0.2 252.97,3.09 379.72,8.69 21.93,0.98 43.87,2.04 65.81,3.2l-74.26 -157.4c-6.68,-13.33 -16.42,-22.92 -29.24,-28.78 -6.39,-3.07 -13.55,-5.2 -21.47,-6.4 -1.07,-0.08 -2.14,-0.16 -3.2,-0.24 -13.46,-1.86 -27.01,-3.61 -40.67,-5.25 -42.09,-4.67 -85.04,-8.32 -128.85,-10.97 -4,-0.36 -8.04,-0.75 -12.12,-1.15l-56.66 -2.28c-1.44,-0.09 -2.89,-0.16 -4.33,-0.23 -0.77,-0.09 -1.52,-0.17 -2.29,-0.24 -23.14,-0.62 -47.3,-1.08 -72.42,-1.38 -25.22,0.29 -49.44,0.75 -72.66,1.38 -0.69,0.07 -1.38,0.15 -2.05,0.24zm-179.36 516.75c70.28,70.32 154.97,105.51 254.06,105.54 1.76,0 3.51,0 5.26,0l0.24 0c96.73,-1.23 179.67,-36.4 248.8,-105.54 11.11,-11.14 21.31,-22.64 30.61,-34.5l-569.8 0c9.36,11.86 19.65,23.36 30.84,34.5zm-208.14 -100.07c-15.39,-15.51 -34.05,-23.28 -55.97,-23.3 -22.07,0.02 -40.89,7.78 -56.44,23.3 -15.52,15.39 -23.28,34.05 -23.3,55.97 0.02,22.07 7.78,40.88 23.3,56.43 15.56,15.52 34.36,23.28 56.44,23.31 21.92,-0.03 40.58,-7.79 55.97,-23.31 15.6,-15.55 23.45,-34.35 23.54,-56.43 -0.1,-21.93 -7.94,-40.58 -23.54,-55.97zm924.87 0c-15.6,15.39 -23.45,34.05 -23.54,55.97 0.1,22.07 7.94,40.88 23.54,56.43 15.39,15.52 34.04,23.28 55.97,23.31 22.07,-0.03 40.88,-7.79 56.43,-23.31 15.52,-15.55 23.28,-34.35 23.31,-56.43 -0.03,-21.92 -7.79,-40.57 -23.31,-55.97 -15.55,-15.51 -34.35,-23.28 -56.43,-23.3 -21.93,0.02 -40.58,7.78 -55.97,23.3z"/>
     </g>
    </g>
    <path class="fil5" d="M1485.94 1939.55c345.5,0 625.57,-280.08 625.57,-625.58 0,-345.5 -280.07,-625.58 -625.57,-625.58 -345.5,0 -625.58,280.08 -625.58,625.58 0,345.5 280.08,625.58 625.58,625.58z"/>
    <path class="fil6" d="M1485.94 1905.32c163.3,0 311.13,-66.19 418.15,-173.21 107.01,-107 173.2,-254.85 173.2,-418.15 0,-163.3 -66.18,-311.14 -173.2,-418.15 -107.01,-107.01 -254.85,-173.21 -418.15,-173.21 -163.3,0 -311.14,66.19 -418.15,173.21 -107.01,107 -173.21,254.85 -173.21,418.15 0,163.3 66.19,311.14 173.21,418.15 107,107.01 254.85,173.21 418.15,173.21zm466.54 -124.8c-119.4,119.4 -284.35,193.25 -466.54,193.25 -182.2,0 -347.15,-73.86 -466.55,-193.25 -119.4,-119.4 -193.25,-284.36 -193.25,-466.55 0,-182.2 73.86,-347.15 193.25,-466.54 119.4,-119.4 284.36,-193.26 466.55,-193.26 182.2,0 347.15,73.86 466.54,193.26 119.4,119.4 193.26,284.35 193.26,466.54 0,182.2 -73.86,347.15 -193.26,466.55z"/>
   </g>
   <path class="fil7" d="M398.36 2688.75l-58.71 0c-6.59,0 -11.96,-1.69 -16.19,-4.99 -4.24,-3.29 -7.34,-7.34 -9.22,-12.23l-30.49 -83.28 -169.11 0 -30.49 83.28c-1.5,4.33 -4.42,8.28 -8.84,11.86 -4.42,3.58 -9.89,5.37 -16.28,5.37l-59.01 0 160.36 -408.24 77.64 0 160.35 408.24zm-264.25 -153.87l130.16 0 -49.69 -135.8c-2.26,-6.02 -4.71,-13.18 -7.43,-21.36 -2.73,-8.19 -5.46,-17.03 -8.1,-26.63 -2.63,9.6 -5.18,18.54 -7.71,26.82 -2.55,8.28 -5.08,15.53 -7.53,21.74l-49.69 135.24z"/>
   <path id="1" class="fil7" d="M706.65 2592.47c4.15,0 7.71,1.6 10.73,4.8l29.92 32.47c-16.56,20.52 -36.89,36.23 -61.07,47.15 -24.18,10.92 -53.26,16.38 -87.14,16.38 -30.31,0 -57.5,-5.18 -81.68,-15.53 -24.19,-10.36 -44.9,-24.75 -62.03,-43.2 -17.12,-18.44 -30.21,-40.47 -39.34,-66.07 -9.12,-25.6 -13.74,-53.55 -13.74,-83.85 0,-30.68 5.08,-58.81 15.25,-84.31 10.16,-25.51 24.47,-47.43 42.91,-65.88 18.44,-18.44 40.56,-32.84 66.25,-43.1 25.69,-10.26 54.02,-15.34 85.07,-15.34 30.31,0 56.84,4.89 79.52,14.58 22.68,9.79 42.07,22.68 58.25,38.78l-25.41 35.29c-1.5,2.26 -3.38,4.24 -5.74,5.93 -2.35,1.7 -5.64,2.55 -9.79,2.55 -4.32,0 -8.75,-1.7 -13.27,-5.08 -4.52,-3.39 -10.26,-7.07 -17.23,-11.02 -6.96,-3.95 -15.71,-7.62 -26.35,-11.01 -10.63,-3.39 -24.18,-5.08 -40.56,-5.08 -19.19,0 -36.79,3.29 -52.89,9.97 -16.09,6.68 -29.92,16.28 -41.5,28.7 -11.58,12.32 -20.61,27.48 -27.1,45.26 -6.5,17.69 -9.79,37.73 -9.79,59.85 0,22.96 3.29,43.39 9.79,61.26 6.5,17.88 15.24,32.84 26.35,45.08 11.1,12.23 24.19,21.65 39.25,28.14 15.05,6.5 31.24,9.69 48.55,9.69 10.36,0 19.77,-0.56 28.14,-1.69 8.37,-1.13 16.1,-2.92 23.15,-5.37 7.06,-2.45 13.74,-5.55 20.05,-9.41 6.3,-3.85 12.51,-8.66 18.72,-14.3 1.89,-1.7 3.86,-3.02 5.94,-4.05 2.06,-1.03 4.32,-1.6 6.77,-1.6z"/>
   <polygon id="2" class="fil7" points="1062.1,2280.5 1062.1,2340.93 881.13,2340.93 881.13,2453.86 1023.7,2453.86 1023.7,2512.57 881.13,2512.57 881.13,2627.76 1062.1,2627.76 1062.1,2688.75 804.62,2688.75 804.62,2280.5 "/>
   <path id="3" class="fil7" d="M1087.79 2280.5l61.26 0c6.59,0 11.96,1.6 16.1,4.81 4.14,3.19 7.24,7.34 9.32,12.42l95.99 249.01c3.2,8.09 6.31,16.94 9.23,26.63 2.92,9.69 5.64,19.95 8.27,30.68 4.33,-21.65 9.7,-40.75 16.1,-57.31l95.71 -249.01c1.69,-4.33 4.7,-8.28 9.03,-11.86 4.32,-3.58 9.69,-5.37 16.1,-5.37l61.26 0 -164.87 408.24 -68.61 0 -164.87 -408.24z"/>
   <polygon id="4" class="fil7" points="1614.33,2688.75 1538.1,2688.75 1538.1,2280.5 1614.33,2280.5 "/>
   <path id="5" class="fil7" d="M1665.99 2280.5l61.26 0c6.59,0 11.96,1.6 16.1,4.81 4.14,3.19 7.24,7.34 9.32,12.42l95.99 249.01c3.2,8.09 6.31,16.94 9.23,26.63 2.92,9.69 5.64,19.95 8.27,30.68 4.33,-21.65 9.7,-40.75 16.1,-57.31l95.71 -249.01c1.69,-4.33 4.7,-8.28 9.03,-11.86 4.32,-3.58 9.69,-5.37 16.1,-5.37l61.26 0 -164.87 408.24 -68.61 0 -164.87 -408.24z"/>
   <polygon id="6" class="fil7" points="2364.45,2280.5 2364.45,2340.93 2183.49,2340.93 2183.49,2453.86 2326.06,2453.86 2326.06,2512.57 2183.49,2512.57 2183.49,2627.76 2364.45,2627.76 2364.45,2688.75 2106.98,2688.75 2106.98,2280.5 "/>
   <path class="fil8" d="M310.85 2921.61l-5.74 0c-0.68,0 -1.23,-0.2 -1.67,-0.56 -0.43,-0.36 -0.78,-0.82 -1.01,-1.4l-12.13 -29.83 -50.44 0 -12.04 29.83c-0.2,0.53 -0.54,0.99 -1.02,1.38 -0.48,0.38 -1.06,0.58 -1.74,0.58l-5.66 0 42.02 -102.77 7.4 0 42.03 102.77zm-68.74 -37.15l46.02 0 -20.98 -51.9c-0.33,-0.83 -0.67,-1.77 -1.01,-2.81 -0.33,-1.03 -0.68,-2.12 -1.01,-3.28 -0.34,1.16 -0.68,2.25 -1.02,3.28 -0.33,1.04 -0.68,2.01 -1.01,2.88l-20.98 51.83z"/>
   <path id="1" class="fil8" d="M376.75 2831.4c-0.44,0.83 -1.07,1.23 -1.89,1.23 -0.63,0 -1.43,-0.45 -2.43,-1.35 -0.99,-0.9 -2.34,-1.9 -4.04,-2.98 -1.69,-1.09 -3.79,-2.08 -6.34,-3.01 -2.54,-0.91 -5.68,-1.38 -9.4,-1.38 -3.72,0 -7,0.53 -9.83,1.6 -2.83,1.06 -5.2,2.52 -7.11,4.35 -1.91,1.84 -3.36,3.96 -4.35,6.39 -0.99,2.42 -1.49,4.95 -1.49,7.62 0,3.49 0.75,6.37 2.22,8.64 1.47,2.27 3.41,4.21 5.83,5.81 2.43,1.59 5.18,2.93 8.25,4.02 3.08,1.08 6.22,2.17 9.45,3.23 3.24,1.07 6.42,2.23 9.48,3.51 3.08,1.29 5.81,2.91 8.23,4.84 2.42,1.94 4.37,4.3 5.85,7.13 1.47,2.83 2.2,6.36 2.2,10.57 0,4.3 -0.73,8.34 -2.2,12.15 -1.47,3.79 -3.63,7.1 -6.44,9.92 -2.78,2.81 -6.21,5.01 -10.28,6.63 -4.06,1.61 -8.71,2.44 -13.9,2.44 -6.78,0 -12.61,-1.21 -17.47,-3.63 -4.88,-2.42 -9.17,-5.71 -12.84,-9.88l2.03 -3.18c0.58,-0.73 1.26,-1.09 2.03,-1.09 0.43,0 0.98,0.28 1.66,0.86 0.68,0.58 1.5,1.29 2.47,2.13 0.97,0.85 2.13,1.77 3.49,2.76 1.33,0.99 2.9,1.91 4.7,2.75 1.79,0.85 3.84,1.57 6.16,2.15 2.33,0.58 4.96,0.87 7.91,0.87 4.04,0 7.67,-0.63 10.87,-1.87 3.19,-1.23 5.88,-2.9 8.08,-5.03 2.2,-2.12 3.87,-4.67 5.03,-7.6 1.16,-2.93 1.74,-6.04 1.74,-9.38 0,-3.63 -0.73,-6.62 -2.2,-8.97 -1.47,-2.35 -3.43,-4.3 -5.85,-5.88 -2.43,-1.57 -5.16,-2.88 -8.23,-3.95 -3.07,-1.06 -6.24,-2.1 -9.48,-3.12 -3.23,-1.02 -6.38,-2.15 -9.45,-3.41 -3.08,-1.26 -5.83,-2.88 -8.25,-4.84 -2.42,-1.96 -4.35,-4.4 -5.83,-7.33 -1.47,-2.93 -2.22,-6.57 -2.22,-10.98 0,-3.44 0.65,-6.75 1.96,-9.94 1.31,-3.19 3.21,-6.02 5.73,-8.47 2.52,-2.44 5.64,-4.4 9.35,-5.88 3.69,-1.47 7.91,-2.2 12.65,-2.2 5.33,0 10.11,0.85 14.35,2.56 4.24,1.72 8.08,4.33 11.57,7.81l-1.74 3.34z"/>
   <path id="2" class="fil8" d="M452.59 2831.4c-0.44,0.83 -1.07,1.23 -1.89,1.23 -0.63,0 -1.43,-0.45 -2.43,-1.35 -0.99,-0.9 -2.34,-1.9 -4.04,-2.98 -1.69,-1.09 -3.79,-2.08 -6.34,-3.01 -2.54,-0.91 -5.68,-1.38 -9.4,-1.38 -3.72,0 -7,0.53 -9.83,1.6 -2.83,1.06 -5.2,2.52 -7.11,4.35 -1.91,1.84 -3.36,3.96 -4.35,6.39 -0.99,2.42 -1.49,4.95 -1.49,7.62 0,3.49 0.75,6.37 2.22,8.64 1.47,2.27 3.41,4.21 5.83,5.81 2.43,1.59 5.18,2.93 8.25,4.02 3.08,1.08 6.22,2.17 9.45,3.23 3.24,1.07 6.42,2.23 9.48,3.51 3.08,1.29 5.81,2.91 8.23,4.84 2.42,1.94 4.37,4.3 5.85,7.13 1.47,2.83 2.2,6.36 2.2,10.57 0,4.3 -0.73,8.34 -2.2,12.15 -1.47,3.79 -3.63,7.1 -6.44,9.92 -2.78,2.81 -6.21,5.01 -10.28,6.63 -4.06,1.61 -8.71,2.44 -13.9,2.44 -6.78,0 -12.61,-1.21 -17.47,-3.63 -4.88,-2.42 -9.17,-5.71 -12.84,-9.88l2.03 -3.18c0.58,-0.73 1.26,-1.09 2.03,-1.09 0.43,0 0.98,0.28 1.66,0.86 0.68,0.58 1.5,1.29 2.47,2.13 0.97,0.85 2.13,1.77 3.49,2.76 1.33,0.99 2.9,1.91 4.7,2.75 1.79,0.85 3.84,1.57 6.16,2.15 2.33,0.58 4.96,0.87 7.91,0.87 4.04,0 7.67,-0.63 10.87,-1.87 3.19,-1.23 5.88,-2.9 8.08,-5.03 2.2,-2.12 3.87,-4.67 5.03,-7.6 1.16,-2.93 1.74,-6.04 1.74,-9.38 0,-3.63 -0.73,-6.62 -2.2,-8.97 -1.47,-2.35 -3.43,-4.3 -5.85,-5.88 -2.43,-1.57 -5.16,-2.88 -8.23,-3.95 -3.07,-1.06 -6.24,-2.1 -9.48,-3.12 -3.23,-1.02 -6.38,-2.15 -9.45,-3.41 -3.08,-1.26 -5.83,-2.88 -8.25,-4.84 -2.42,-1.96 -4.35,-4.4 -5.83,-7.33 -1.47,-2.93 -2.22,-6.57 -2.22,-10.98 0,-3.44 0.65,-6.75 1.96,-9.94 1.31,-3.19 3.21,-6.02 5.73,-8.47 2.52,-2.44 5.64,-4.4 9.35,-5.88 3.69,-1.47 7.91,-2.2 12.65,-2.2 5.33,0 10.11,0.85 14.35,2.56 4.24,1.72 8.08,4.33 11.57,7.81l-1.74 3.34z"/>
   <path id="3" class="fil8" d="M570.37 2870.23c0,7.94 -1.18,15.14 -3.55,21.63 -2.38,6.46 -5.71,11.98 -10.02,16.57 -4.27,4.58 -9.43,8.11 -15.43,10.6 -6,2.49 -12.66,3.74 -19.94,3.74 -7.2,0 -13.82,-1.26 -19.81,-3.74 -6,-2.5 -11.15,-6.02 -15.44,-10.6 -4.3,-4.59 -7.66,-10.11 -10.06,-16.57 -2.4,-6.49 -3.58,-13.69 -3.58,-21.63 0,-7.88 1.18,-15.07 3.58,-21.55 2.4,-6.47 5.76,-11.98 10.06,-16.58 4.28,-4.57 9.43,-8.13 15.44,-10.64 5.99,-2.52 12.61,-3.77 19.81,-3.77 7.28,0 13.93,1.26 19.94,3.75 5.99,2.49 11.15,6.04 15.43,10.64 4.31,4.6 7.65,10.13 10.02,16.6 2.37,6.48 3.55,13.67 3.55,21.55zm-7.68 -0.05c0,-7.16 -0.99,-13.59 -2.98,-19.3 -1.99,-5.71 -4.77,-10.57 -8.37,-14.54 -3.58,-3.97 -7.93,-6.99 -12.99,-9.1 -5.08,-2.1 -10.69,-3.16 -16.88,-3.16 -6.1,0 -11.66,1.06 -16.7,3.16 -5.06,2.11 -9.41,5.13 -13.04,9.1 -3.66,3.97 -6.49,8.83 -8.49,14.54 -2,5.71 -3,12.14 -3,19.3 0,7.23 0.99,13.67 3,19.38 2,5.69 4.83,10.5 8.49,14.49 3.63,3.96 7.98,6.99 13.04,9.07 5.03,2.08 10.59,3.12 16.7,3.12 6.19,0 11.8,-1.03 16.88,-3.12 5.06,-2.08 9.41,-5.11 12.99,-9.07 3.61,-3.99 6.39,-8.8 8.37,-14.49 1.99,-5.71 2.98,-12.15 2.98,-19.38z"/>
   <path id="4" class="fil8" d="M669.23 2904.34c0.48,0 0.89,0.17 1.23,0.51l2.91 3.12c-2.13,2.27 -4.45,4.3 -6.97,6.11 -2.52,1.82 -5.26,3.37 -8.22,4.65 -2.98,1.29 -6.25,2.27 -9.8,2.98 -3.56,0.7 -7.48,1.06 -11.73,1.06 -7.11,0 -13.62,-1.26 -19.56,-3.74 -5.93,-2.5 -11.03,-6.02 -15.26,-10.6 -4.24,-4.57 -7.55,-10.11 -9.94,-16.6 -2.4,-6.48 -3.58,-13.69 -3.58,-21.65 0,-7.79 1.23,-14.9 3.69,-21.33 2.48,-6.44 5.91,-11.98 10.34,-16.6 4.42,-4.62 9.75,-8.21 15.92,-10.74 6.16,-2.55 12.96,-3.82 20.41,-3.82 3.72,0 7.14,0.27 10.24,0.83 3.1,0.55 5.99,1.36 8.68,2.39 2.69,1.04 5.21,2.35 7.58,3.9 2.37,1.54 4.7,3.33 6.97,5.37l-2.25 3.27c-0.38,0.58 -0.99,0.86 -1.82,0.86 -0.43,0 -0.98,-0.27 -1.66,-0.78 -0.68,-0.5 -1.52,-1.13 -2.56,-1.89 -1.04,-0.75 -2.3,-1.57 -3.77,-2.47 -1.48,-0.89 -3.24,-1.71 -5.28,-2.47 -2.03,-0.75 -4.38,-1.38 -7.04,-1.89 -2.66,-0.5 -5.69,-0.75 -9.08,-0.75 -6.24,0 -11.97,1.09 -17.2,3.24 -5.23,2.15 -9.73,5.23 -13.5,9.22 -3.77,3.99 -6.7,8.82 -8.8,14.51 -2.1,5.71 -3.16,12.07 -3.16,19.13 0,7.28 1.04,13.77 3.12,19.48 2.08,5.71 4.96,10.54 8.64,14.49 3.68,3.94 8.03,6.97 13.04,9.07 5.01,2.1 10.43,3.16 16.28,3.16 3.68,0 6.97,-0.24 9.85,-0.73 2.88,-0.48 5.51,-1.21 7.93,-2.17 2.42,-0.97 4.67,-2.15 6.75,-3.56 2.08,-1.41 4.14,-3.05 6.17,-4.93 0.25,-0.2 0.48,-0.36 0.7,-0.49 0.22,-0.12 0.46,-0.17 0.76,-0.17z"/>
   <polygon id="5" class="fil8" points="706.82,2921.61 699.27,2921.61 699.27,2818.84 706.82,2818.84 "/>
   <path id="6" class="fil8" d="M817.36 2921.61l-5.74 0c-0.68,0 -1.23,-0.2 -1.67,-0.56 -0.43,-0.36 -0.78,-0.82 -1.01,-1.4l-12.13 -29.83 -50.44 0 -12.04 29.83c-0.2,0.53 -0.54,0.99 -1.02,1.38 -0.48,0.38 -1.06,0.58 -1.74,0.58l-5.66 0 42.02 -102.77 7.4 0 42.03 102.77zm-68.74 -37.15l46.02 0 -20.98 -51.9c-0.33,-0.83 -0.67,-1.77 -1.01,-2.81 -0.33,-1.03 -0.68,-2.12 -1.01,-3.28 -0.34,1.16 -0.68,2.25 -1.02,3.28 -0.33,1.04 -0.68,2.01 -1.01,2.88l-20.98 51.83z"/>
   <path id="7" class="fil8" d="M863.8 2941.42c0.25,0 0.58,0.13 0.99,0.39 0.41,0.27 0.94,0.55 1.59,0.86 0.66,0.31 1.45,0.61 2.42,0.87 0.97,0.27 2.16,0.41 3.56,0.41 2.47,0 4.4,-0.53 5.79,-1.6 1.38,-1.06 2.05,-2.52 2.05,-4.35 0,-1.21 -0.31,-2.22 -0.94,-3.03 -0.63,-0.8 -1.52,-1.44 -2.68,-1.98 -1.16,-0.54 -2.52,-0.94 -4.09,-1.24 -1.57,-0.29 -3.32,-0.56 -5.21,-0.8l2.61 -8.35c-6.62,-0.38 -12.68,-1.91 -18.17,-4.57 -5.48,-2.66 -10.2,-6.27 -14.12,-10.81 -3.92,-4.58 -6.97,-9.97 -9.15,-16.21 -2.17,-6.24 -3.26,-13.18 -3.26,-20.85 0,-7.79 1.23,-14.9 3.69,-21.33 2.48,-6.44 5.91,-11.98 10.34,-16.6 4.42,-4.62 9.75,-8.21 15.92,-10.74 6.16,-2.55 12.96,-3.82 20.41,-3.82 3.72,0 7.14,0.27 10.24,0.83 3.1,0.55 5.99,1.36 8.68,2.39 2.69,1.04 5.21,2.35 7.58,3.9 2.37,1.54 4.7,3.33 6.97,5.37l-2.25 3.27c-0.38,0.58 -0.99,0.86 -1.82,0.86 -0.43,0 -0.98,-0.27 -1.66,-0.78 -0.68,-0.5 -1.52,-1.13 -2.56,-1.89 -1.04,-0.75 -2.3,-1.57 -3.77,-2.47 -1.48,-0.89 -3.24,-1.71 -5.28,-2.47 -2.03,-0.75 -4.38,-1.38 -7.04,-1.89 -2.66,-0.5 -5.69,-0.75 -9.08,-0.75 -6.24,0 -11.97,1.09 -17.2,3.24 -5.23,2.15 -9.73,5.23 -13.5,9.22 -3.77,3.99 -6.7,8.82 -8.8,14.51 -2.1,5.71 -3.16,12.07 -3.16,19.13 0,7.28 1.04,13.77 3.12,19.48 2.08,5.71 4.96,10.54 8.64,14.49 3.68,3.94 8.03,6.97 13.04,9.07 5.01,2.1 10.43,3.16 16.28,3.16 3.68,0 6.97,-0.24 9.85,-0.73 2.88,-0.48 5.51,-1.21 7.93,-2.17 2.42,-0.97 4.67,-2.15 6.75,-3.56 2.08,-1.41 4.14,-3.05 6.17,-4.93 0.25,-0.2 0.48,-0.36 0.7,-0.49 0.22,-0.12 0.46,-0.17 0.76,-0.17 0.48,0 0.89,0.17 1.23,0.51l2.91 3.12c-2.13,2.22 -4.4,4.23 -6.85,6.02 -2.45,1.79 -5.13,3.31 -8.06,4.59 -2.93,1.29 -6.14,2.3 -9.63,3.03 -3.48,0.73 -7.28,1.11 -11.39,1.16l-1.67 5.47c4.3,0.77 7.6,1.89 9.85,3.33 2.25,1.45 3.36,3.61 3.36,6.49 0,1.45 -0.33,2.76 -0.99,3.92 -0.65,1.16 -1.59,2.15 -2.8,2.95 -1.19,0.8 -2.61,1.42 -4.26,1.87 -1.64,0.43 -3.43,0.65 -5.37,0.65 -1.99,0 -3.92,-0.28 -5.81,-0.85 -1.89,-0.58 -3.46,-1.33 -4.72,-2.27l0.73 -2.03c0.28,-0.58 0.68,-0.87 1.16,-0.87z"/>
   <path id="8" class="fil8" d="M1010.84 2921.61l-5.74 0c-0.68,0 -1.23,-0.2 -1.67,-0.56 -0.43,-0.36 -0.78,-0.82 -1.01,-1.4l-12.13 -29.83 -50.44 0 -12.04 29.83c-0.2,0.53 -0.54,0.99 -1.02,1.38 -0.48,0.38 -1.06,0.58 -1.74,0.58l-5.66 0 42.02 -102.77 7.4 0 42.03 102.77zm-68.74 -37.15l46.02 0 -20.98 -51.9c-0.33,-0.83 -0.67,-1.77 -1.01,-2.81 -0.33,-1.03 -0.68,-2.12 -1.01,-3.28 -0.34,1.16 -0.68,2.25 -1.02,3.28 -0.33,1.04 -0.68,2.01 -1.01,2.88l-20.98 51.83zm31.69 -80.15c2.03,0 3.59,-0.68 4.68,-2.01 1.06,-1.36 1.62,-3.05 1.66,-5.15l3.92 0c0,1.69 -0.22,3.26 -0.65,4.72 -0.44,1.42 -1.07,2.68 -1.89,3.79 -0.83,1.09 -1.89,1.94 -3.17,2.55 -1.28,0.6 -2.75,0.91 -4.4,0.91 -1.59,0 -3.12,-0.38 -4.57,-1.16 -1.45,-0.77 -2.86,-1.62 -4.24,-2.52 -1.36,-0.91 -2.66,-1.74 -3.94,-2.54 -1.29,-0.78 -2.59,-1.16 -3.9,-1.16 -2.02,0 -3.58,0.68 -4.62,2.05 -1.04,1.36 -1.62,3.05 -1.72,5.1l-4.06 0c0,-1.64 0.25,-3.21 0.7,-4.67 0.46,-1.47 1.12,-2.73 1.99,-3.84 0.87,-1.09 1.94,-1.94 3.19,-2.55 1.29,-0.6 2.73,-0.91 4.38,-0.91 1.64,0 3.19,0.38 4.64,1.16 1.45,0.78 2.86,1.62 4.24,2.52 1.36,0.91 2.66,1.74 3.92,2.52 1.26,0.8 2.55,1.19 3.84,1.19z"/>
   <path id="9" class="fil8" d="M1116.5 2870.23c0,7.94 -1.18,15.14 -3.55,21.63 -2.38,6.46 -5.71,11.98 -10.02,16.57 -4.27,4.58 -9.43,8.11 -15.43,10.6 -6,2.49 -12.66,3.74 -19.94,3.74 -7.2,0 -13.82,-1.26 -19.81,-3.74 -6,-2.5 -11.15,-6.02 -15.44,-10.6 -4.3,-4.59 -7.66,-10.11 -10.06,-16.57 -2.4,-6.49 -3.58,-13.69 -3.58,-21.63 0,-7.88 1.18,-15.07 3.58,-21.55 2.4,-6.47 5.76,-11.98 10.06,-16.58 4.28,-4.57 9.43,-8.13 15.44,-10.64 5.99,-2.52 12.61,-3.77 19.81,-3.77 7.28,0 13.93,1.26 19.94,3.75 5.99,2.49 11.15,6.04 15.43,10.64 4.31,4.6 7.65,10.13 10.02,16.6 2.37,6.48 3.55,13.67 3.55,21.55zm-7.68 -0.05c0,-7.16 -0.99,-13.59 -2.98,-19.3 -1.99,-5.71 -4.77,-10.57 -8.37,-14.54 -3.58,-3.97 -7.93,-6.99 -12.99,-9.1 -5.08,-2.1 -10.69,-3.16 -16.88,-3.16 -6.1,0 -11.66,1.06 -16.7,3.16 -5.06,2.11 -9.41,5.13 -13.04,9.1 -3.66,3.97 -6.49,8.83 -8.49,14.54 -2,5.71 -3,12.14 -3,19.3 0,7.23 0.99,13.67 3,19.38 2,5.69 4.83,10.5 8.49,14.49 3.63,3.96 7.98,6.99 13.04,9.07 5.03,2.08 10.59,3.12 16.7,3.12 6.19,0 11.8,-1.03 16.88,-3.12 5.06,-2.08 9.41,-5.11 12.99,-9.07 3.61,-3.99 6.39,-8.8 8.37,-14.49 1.99,-5.71 2.98,-12.15 2.98,-19.38z"/>
   <path id="10" class="fil8" d="M1243.37 2904.34c0.48,0 0.89,0.17 1.23,0.51l2.91 3.12c-2.13,2.27 -4.45,4.3 -6.97,6.11 -2.52,1.82 -5.26,3.37 -8.22,4.65 -2.98,1.29 -6.25,2.27 -9.8,2.98 -3.56,0.7 -7.48,1.06 -11.73,1.06 -7.11,0 -13.62,-1.26 -19.56,-3.74 -5.93,-2.5 -11.03,-6.02 -15.26,-10.6 -4.24,-4.57 -7.55,-10.11 -9.94,-16.6 -2.4,-6.48 -3.58,-13.69 -3.58,-21.65 0,-7.79 1.23,-14.9 3.69,-21.33 2.48,-6.44 5.91,-11.98 10.34,-16.6 4.42,-4.62 9.75,-8.21 15.92,-10.74 6.16,-2.55 12.96,-3.82 20.41,-3.82 3.72,0 7.14,0.27 10.24,0.83 3.1,0.55 5.99,1.36 8.68,2.39 2.69,1.04 5.21,2.35 7.58,3.9 2.37,1.54 4.7,3.33 6.97,5.37l-2.25 3.27c-0.38,0.58 -0.99,0.86 -1.82,0.86 -0.43,0 -0.98,-0.27 -1.66,-0.78 -0.68,-0.5 -1.52,-1.13 -2.56,-1.89 -1.04,-0.75 -2.3,-1.57 -3.77,-2.47 -1.48,-0.89 -3.24,-1.71 -5.28,-2.47 -2.03,-0.75 -4.38,-1.38 -7.04,-1.89 -2.66,-0.5 -5.69,-0.75 -9.08,-0.75 -6.24,0 -11.97,1.09 -17.2,3.24 -5.23,2.15 -9.73,5.23 -13.5,9.22 -3.77,3.99 -6.7,8.82 -8.8,14.51 -2.1,5.71 -3.16,12.07 -3.16,19.13 0,7.28 1.04,13.77 3.12,19.48 2.08,5.71 4.96,10.54 8.64,14.49 3.68,3.94 8.03,6.97 13.04,9.07 5.01,2.1 10.43,3.16 16.28,3.16 3.68,0 6.97,-0.24 9.85,-0.73 2.88,-0.48 5.51,-1.21 7.93,-2.17 2.42,-0.97 4.67,-2.15 6.75,-3.56 2.08,-1.41 4.14,-3.05 6.17,-4.93 0.25,-0.2 0.48,-0.36 0.7,-0.49 0.22,-0.12 0.46,-0.17 0.76,-0.17z"/>
   <path id="11" class="fil8" d="M1348.09 2921.61l-5.74 0c-0.68,0 -1.23,-0.2 -1.67,-0.56 -0.43,-0.36 -0.78,-0.82 -1.01,-1.4l-12.13 -29.83 -50.44 0 -12.04 29.83c-0.2,0.53 -0.54,0.99 -1.02,1.38 -0.48,0.38 -1.06,0.58 -1.74,0.58l-5.66 0 42.02 -102.77 7.4 0 42.03 102.77zm-68.74 -37.15l46.02 0 -20.98 -51.9c-0.33,-0.83 -0.67,-1.77 -1.01,-2.81 -0.33,-1.03 -0.68,-2.12 -1.01,-3.28 -0.34,1.16 -0.68,2.25 -1.02,3.28 -0.33,1.04 -0.68,2.01 -1.01,2.88l-20.98 51.83z"/>
   <path id="12" class="fil8" d="M1373.93 2880.24l0 41.37 -7.4 0 0 -102.77 26.51 0c12.07,0 21.17,2.63 27.29,7.91 6.11,5.3 9.19,12.82 9.19,22.6 0,4.52 -0.85,8.66 -2.52,12.43 -1.67,3.77 -4.06,7.04 -7.23,9.77 -3.14,2.74 -6.97,4.86 -11.47,6.39 -4.5,1.52 -9.6,2.3 -15.26,2.3l-19.11 0zm0 -5.95l19.11 0c4.55,0 8.64,-0.63 12.21,-1.89 3.58,-1.26 6.62,-3.01 9.12,-5.23 2.5,-2.23 4.4,-4.86 5.73,-7.89 1.34,-3.02 2.01,-6.31 2.01,-9.9 0,-7.88 -2.45,-13.95 -7.31,-18.21 -4.85,-4.26 -12.12,-6.39 -21.77,-6.39l-19.11 0 0 49.5z"/>
   <polygon id="13" class="fil8" points="1460.66,2921.61 1453.11,2921.61 1453.11,2818.84 1460.66,2818.84 "/>
   <path id="14" class="fil8" d="M1516.99 2868.87l-35.43 -50.03 7.33 0c0.68,0 1.19,0.15 1.5,0.43 0.31,0.29 0.58,0.63 0.83,1.02l31.2 45c0.15,-0.39 0.31,-0.78 0.49,-1.14 0.17,-0.36 0.36,-0.73 0.6,-1.11l30.12 -42.68c0.29,-0.38 0.61,-0.75 0.94,-1.06 0.34,-0.31 0.76,-0.46 1.24,-0.46l7.11 0 -35.49 49.66 36.94 53.1 -7.33 0c-0.68,0 -1.21,-0.22 -1.59,-0.63 -0.39,-0.41 -0.71,-0.8 -0.94,-1.19l-32.37 -47.32c-0.2,0.73 -0.53,1.42 -1.01,2.1l-31.79 45.21c-0.34,0.44 -0.73,0.85 -1.16,1.24 -0.44,0.38 -0.95,0.58 -1.53,0.58l-6.74 0 37.09 -52.74z"/>
   <path id="15" class="fil8" d="M1658.22 2921.61l-5.74 0c-0.68,0 -1.23,-0.2 -1.67,-0.56 -0.43,-0.36 -0.78,-0.82 -1.01,-1.4l-12.13 -29.83 -50.44 0 -12.04 29.83c-0.2,0.53 -0.54,0.99 -1.02,1.38 -0.48,0.38 -1.06,0.58 -1.74,0.58l-5.66 0 42.02 -102.77 7.4 0 42.03 102.77zm-68.74 -37.15l46.02 0 -20.98 -51.9c-0.33,-0.83 -0.67,-1.77 -1.01,-2.81 -0.33,-1.03 -0.68,-2.12 -1.01,-3.28 -0.34,1.16 -0.68,2.25 -1.02,3.28 -0.33,1.04 -0.68,2.01 -1.01,2.88l-20.98 51.83z"/>
   <path id="16" class="fil8" d="M1674.47 2921.61l0 -102.77 29.54 0c5.86,0 10.94,0.58 15.21,1.74 4.28,1.17 7.82,2.88 10.62,5.13 2.81,2.25 4.91,4.98 6.29,8.22 1.38,3.27 2.05,6.95 2.05,11.06 0,2.71 -0.45,5.33 -1.4,7.84 -0.94,2.52 -2.33,4.83 -4.12,6.97 -1.79,2.13 -3.97,3.99 -6.55,5.56 -2.58,1.57 -5.56,2.76 -8.9,3.59 8.08,1.21 14.3,3.91 18.65,8.08 4.35,4.16 6.53,9.65 6.53,16.47 0,4.35 -0.78,8.27 -2.33,11.78 -1.54,3.49 -3.79,6.44 -6.74,8.85 -2.96,2.42 -6.58,4.26 -10.89,5.54 -4.3,1.29 -9.2,1.94 -14.66,1.94l-33.31 0zm7.4 -49.2l0 43.25 25.77 0c9.05,0 15.87,-1.96 20.47,-5.85 4.6,-3.9 6.89,-9.36 6.89,-16.43 0,-3.24 -0.6,-6.17 -1.84,-8.76 -1.23,-2.59 -3.02,-4.8 -5.35,-6.6 -2.32,-1.82 -5.18,-3.19 -8.56,-4.17 -3.39,-0.96 -7.23,-1.44 -11.54,-1.44l-25.84 0zm0 -5.38l22.26 0c4.72,0 8.79,-0.6 12.13,-1.82 3.36,-1.21 6.11,-2.8 8.26,-4.79 2.16,-2 3.73,-4.25 4.75,-6.77 1.01,-2.52 1.52,-5.11 1.52,-7.79 0,-6.92 -2.17,-12.17 -6.55,-15.72 -4.38,-3.56 -11.12,-5.35 -20.25,-5.35l-22.11 0 0 42.24z"/>
   <path id="17" class="fil8" d="M1844.81 2921.61l-5.74 0c-0.68,0 -1.23,-0.2 -1.67,-0.56 -0.43,-0.36 -0.78,-0.82 -1.01,-1.4l-12.13 -29.83 -50.44 0 -12.04 29.83c-0.2,0.53 -0.54,0.99 -1.02,1.38 -0.48,0.38 -1.06,0.58 -1.74,0.58l-5.66 0 42.02 -102.77 7.4 0 42.03 102.77zm-68.74 -37.15l46.02 0 -20.98 -51.9c-0.33,-0.83 -0.67,-1.77 -1.01,-2.81 -0.33,-1.03 -0.68,-2.12 -1.01,-3.28 -0.34,1.16 -0.68,2.25 -1.02,3.28 -0.33,1.04 -0.68,2.01 -1.01,2.88l-20.98 51.83z"/>
   <path id="18" class="fil8" d="M1975.44 2870.18c0,7.96 -1.19,15.09 -3.56,21.43 -2.37,6.34 -5.71,11.73 -10.01,16.21 -4.28,4.45 -9.44,7.86 -15.44,10.23 -6,2.37 -12.66,3.56 -19.94,3.56l-37.42 0 0 -102.77 37.42 0c7.28,0 13.93,1.19 19.94,3.56 5.99,2.37 11.15,5.78 15.44,10.23 4.3,4.45 7.65,9.88 10.01,16.21 2.37,6.34 3.56,13.45 3.56,21.33zm-7.69 0c0,-7.13 -0.99,-13.52 -2.98,-19.13 -1.99,-5.61 -4.77,-10.36 -8.37,-14.2 -3.58,-3.87 -7.91,-6.83 -12.99,-8.85 -5.05,-2.03 -10.69,-3.05 -16.88,-3.05l-29.9 0 0 90.57 29.9 0c6.19,0 11.83,-1.02 16.88,-3.06 5.08,-2.02 9.41,-4.98 12.99,-8.85 3.61,-3.86 6.39,-8.59 8.37,-14.2 1.99,-5.61 2.98,-12.02 2.98,-19.23z"/>
   <path id="19" class="fil8" d="M2074.51 2921.61l-5.74 0c-0.68,0 -1.23,-0.2 -1.67,-0.56 -0.43,-0.36 -0.78,-0.82 -1.01,-1.4l-12.13 -29.83 -50.44 0 -12.04 29.83c-0.2,0.53 -0.54,0.99 -1.02,1.38 -0.48,0.38 -1.06,0.58 -1.74,0.58l-5.66 0 42.02 -102.77 7.4 0 42.03 102.77zm-68.74 -37.15l46.02 0 -20.98 -51.9c-0.33,-0.83 -0.67,-1.77 -1.01,-2.81 -0.33,-1.03 -0.68,-2.12 -1.01,-3.28 -0.34,1.16 -0.68,2.25 -1.02,3.28 -0.33,1.04 -0.68,2.01 -1.01,2.88l-20.98 51.83z"/>
   <path id="20" class="fil8" d="M2140.4 2831.4c-0.44,0.83 -1.07,1.23 -1.89,1.23 -0.63,0 -1.43,-0.45 -2.43,-1.35 -0.99,-0.9 -2.34,-1.9 -4.04,-2.98 -1.69,-1.09 -3.79,-2.08 -6.34,-3.01 -2.54,-0.91 -5.68,-1.38 -9.4,-1.38 -3.72,0 -7,0.53 -9.83,1.6 -2.83,1.06 -5.2,2.52 -7.11,4.35 -1.91,1.84 -3.36,3.96 -4.35,6.39 -0.99,2.42 -1.49,4.95 -1.49,7.62 0,3.49 0.75,6.37 2.22,8.64 1.47,2.27 3.41,4.21 5.83,5.81 2.43,1.59 5.18,2.93 8.25,4.02 3.08,1.08 6.22,2.17 9.45,3.23 3.24,1.07 6.42,2.23 9.48,3.51 3.08,1.29 5.81,2.91 8.23,4.84 2.42,1.94 4.37,4.3 5.85,7.13 1.47,2.83 2.2,6.36 2.2,10.57 0,4.3 -0.73,8.34 -2.2,12.15 -1.47,3.79 -3.63,7.1 -6.44,9.92 -2.78,2.81 -6.21,5.01 -10.28,6.63 -4.06,1.61 -8.71,2.44 -13.9,2.44 -6.78,0 -12.61,-1.21 -17.47,-3.63 -4.88,-2.42 -9.17,-5.71 -12.84,-9.88l2.03 -3.18c0.58,-0.73 1.26,-1.09 2.03,-1.09 0.43,0 0.98,0.28 1.66,0.86 0.68,0.58 1.5,1.29 2.47,2.13 0.97,0.85 2.13,1.77 3.49,2.76 1.33,0.99 2.9,1.91 4.7,2.75 1.79,0.85 3.84,1.57 6.16,2.15 2.33,0.58 4.96,0.87 7.91,0.87 4.04,0 7.67,-0.63 10.87,-1.87 3.19,-1.23 5.88,-2.9 8.08,-5.03 2.2,-2.12 3.87,-4.67 5.03,-7.6 1.16,-2.93 1.74,-6.04 1.74,-9.38 0,-3.63 -0.73,-6.62 -2.2,-8.97 -1.47,-2.35 -3.43,-4.3 -5.85,-5.88 -2.43,-1.57 -5.16,-2.88 -8.23,-3.95 -3.07,-1.06 -6.24,-2.1 -9.48,-3.12 -3.23,-1.02 -6.38,-2.15 -9.45,-3.41 -3.08,-1.26 -5.83,-2.88 -8.25,-4.84 -2.42,-1.96 -4.35,-4.4 -5.83,-7.33 -1.47,-2.93 -2.22,-6.57 -2.22,-10.98 0,-3.44 0.65,-6.75 1.96,-9.94 1.31,-3.19 3.21,-6.02 5.73,-8.47 2.52,-2.44 5.64,-4.4 9.35,-5.88 3.69,-1.47 7.91,-2.2 12.65,-2.2 5.33,0 10.11,0.85 14.35,2.56 4.24,1.72 8.08,4.33 11.57,7.81l-1.74 3.34z"/>
   <polygon id="21" class="fil8" points="455.76,2993.02 455.76,2999.26 401.69,2999.26 401.69,3040.78 446.68,3040.78 446.68,3046.87 401.69,3046.87 401.69,3089.55 455.76,3089.55 455.76,3095.79 394.14,3095.79 394.14,2993.02 "/>
   <path id="22" class="fil8" d="M529.28 3065.82c0.73,1.36 1.36,2.8 1.89,4.35 0.29,-0.78 0.61,-1.55 0.92,-2.3 0.31,-0.75 0.65,-1.45 1.04,-2.13l40.35 -71.34c0.38,-0.63 0.78,-1.01 1.16,-1.16 0.38,-0.14 0.92,-0.22 1.6,-0.22l5.15 0 0 102.77 -6.53 0 0 -87.53c0,-1.26 0.1,-2.58 0.29,-3.99l-40.41 71.77c-0.67,1.26 -1.64,1.89 -2.87,1.89l-1.17 0c-1.21,0 -2.17,-0.63 -2.9,-1.89l-41.49 -71.85c0.1,1.41 0.15,2.76 0.15,4.07l0 87.53 -6.53 0 0 -102.77 5.08 0c0.68,0 1.23,0.08 1.64,0.22 0.41,0.15 0.81,0.53 1.19,1.16l41.44 71.42z"/>
   <path id="23" class="fil8" d="M621.45 3054.42l0 41.37 -7.4 0 0 -102.77 26.51 0c12.07,0 21.17,2.63 27.29,7.91 6.11,5.3 9.19,12.82 9.19,22.6 0,4.52 -0.85,8.66 -2.52,12.43 -1.67,3.77 -4.06,7.04 -7.23,9.77 -3.14,2.74 -6.97,4.86 -11.47,6.39 -4.5,1.52 -9.6,2.3 -15.26,2.3l-19.11 0zm0 -5.95l19.11 0c4.55,0 8.64,-0.63 12.21,-1.89 3.58,-1.26 6.62,-3.01 9.12,-5.23 2.5,-2.23 4.4,-4.86 5.73,-7.89 1.34,-3.02 2.01,-6.31 2.01,-9.9 0,-7.88 -2.45,-13.95 -7.31,-18.21 -4.85,-4.26 -12.12,-6.39 -21.77,-6.39l-19.11 0 0 49.5z"/>
   <path id="24" class="fil8" d="M707.6 3049.34l0 46.45 -7.4 0 0 -102.77 26.2 0c11.85,0 20.7,2.3 26.56,6.87 5.86,4.58 8.78,11.28 8.78,20.15 0,3.92 -0.68,7.5 -2.02,10.74 -1.36,3.24 -3.29,6.09 -5.84,8.54 -2.54,2.45 -5.61,4.45 -9.19,6.02 -3.59,1.57 -7.63,2.61 -12.13,3.1 1.17,0.73 2.2,1.7 3.12,2.91l35.42 44.44 -6.46 0c-0.78,0 -1.42,-0.15 -1.99,-0.43 -0.56,-0.29 -1.11,-0.78 -1.64,-1.45l-32.93 -41.66c-0.83,-1.07 -1.69,-1.82 -2.63,-2.25 -0.97,-0.44 -2.43,-0.66 -4.4,-0.66l-13.45 0zm0 -5.37l17.86 0c4.54,0 8.64,-0.56 12.23,-1.65 3.61,-1.08 6.65,-2.65 9.15,-4.69 2.5,-2.03 4.38,-4.48 5.68,-7.36 1.31,-2.85 1.97,-6.09 1.97,-9.67 0,-7.33 -2.4,-12.77 -7.18,-16.31 -4.8,-3.56 -11.76,-5.32 -20.9,-5.32l-18.8 0 0 45z"/>
   <polygon id="25" class="fil8" points="851.23,2993.02 851.23,2999.26 797.17,2999.26 797.17,3040.78 842.16,3040.78 842.16,3046.87 797.17,3046.87 797.17,3089.55 851.23,3089.55 851.23,3095.79 789.62,3095.79 789.62,2993.02 "/>
   <path id="26" class="fil8" d="M925.05 3005.58c-0.44,0.83 -1.07,1.23 -1.89,1.23 -0.63,0 -1.43,-0.45 -2.43,-1.35 -0.99,-0.9 -2.34,-1.9 -4.04,-2.98 -1.69,-1.09 -3.79,-2.08 -6.34,-3.01 -2.54,-0.91 -5.68,-1.38 -9.4,-1.38 -3.72,0 -7,0.53 -9.83,1.6 -2.83,1.06 -5.2,2.52 -7.11,4.35 -1.91,1.84 -3.36,3.96 -4.35,6.39 -0.99,2.42 -1.49,4.95 -1.49,7.62 0,3.49 0.75,6.37 2.22,8.64 1.47,2.27 3.41,4.21 5.83,5.81 2.43,1.59 5.18,2.93 8.25,4.02 3.08,1.08 6.22,2.17 9.45,3.23 3.24,1.07 6.42,2.23 9.48,3.51 3.08,1.29 5.81,2.91 8.23,4.84 2.42,1.94 4.37,4.3 5.85,7.13 1.47,2.83 2.2,6.36 2.2,10.57 0,4.3 -0.73,8.34 -2.2,12.15 -1.47,3.79 -3.63,7.1 -6.44,9.92 -2.78,2.81 -6.21,5.01 -10.28,6.63 -4.06,1.61 -8.71,2.44 -13.9,2.44 -6.78,0 -12.61,-1.21 -17.47,-3.63 -4.88,-2.42 -9.17,-5.71 -12.84,-9.88l2.03 -3.18c0.58,-0.73 1.26,-1.09 2.03,-1.09 0.43,0 0.98,0.28 1.66,0.86 0.68,0.58 1.5,1.29 2.47,2.13 0.97,0.85 2.13,1.77 3.49,2.76 1.33,0.99 2.9,1.91 4.7,2.75 1.79,0.85 3.84,1.57 6.16,2.15 2.33,0.58 4.96,0.87 7.91,0.87 4.04,0 7.67,-0.63 10.87,-1.87 3.19,-1.23 5.88,-2.9 8.08,-5.03 2.2,-2.12 3.87,-4.67 5.03,-7.6 1.16,-2.93 1.74,-6.04 1.74,-9.38 0,-3.63 -0.73,-6.62 -2.2,-8.97 -1.47,-2.35 -3.43,-4.3 -5.85,-5.88 -2.43,-1.57 -5.16,-2.88 -8.23,-3.95 -3.07,-1.06 -6.24,-2.1 -9.48,-3.12 -3.23,-1.02 -6.38,-2.15 -9.45,-3.41 -3.08,-1.26 -5.83,-2.88 -8.25,-4.84 -2.42,-1.96 -4.35,-4.4 -5.83,-7.33 -1.47,-2.93 -2.22,-6.57 -2.22,-10.98 0,-3.44 0.65,-6.75 1.96,-9.94 1.31,-3.19 3.21,-6.02 5.73,-8.47 2.52,-2.44 5.64,-4.4 9.35,-5.88 3.69,-1.47 7.91,-2.2 12.65,-2.2 5.33,0 10.11,0.85 14.35,2.56 4.24,1.72 8.08,4.33 11.57,7.81l-1.74 3.34z"/>
   <path id="27" class="fil8" d="M1028.55 3095.79l-5.74 0c-0.68,0 -1.23,-0.2 -1.67,-0.56 -0.43,-0.36 -0.78,-0.82 -1.01,-1.4l-12.13 -29.83 -50.44 0 -12.04 29.83c-0.2,0.53 -0.54,0.99 -1.02,1.38 -0.48,0.38 -1.06,0.58 -1.74,0.58l-5.66 0 42.02 -102.77 7.4 0 42.03 102.77zm-68.74 -37.15l46.02 0 -20.98 -51.9c-0.33,-0.83 -0.67,-1.77 -1.01,-2.81 -0.33,-1.03 -0.68,-2.12 -1.01,-3.28 -0.34,1.16 -0.68,2.25 -1.02,3.28 -0.33,1.04 -0.68,2.01 -1.01,2.88l-20.98 51.83z"/>
   <path id="28" class="fil8" d="M1094.45 3005.58c-0.44,0.83 -1.07,1.23 -1.89,1.23 -0.63,0 -1.43,-0.45 -2.43,-1.35 -0.99,-0.9 -2.34,-1.9 -4.04,-2.98 -1.69,-1.09 -3.79,-2.08 -6.34,-3.01 -2.54,-0.91 -5.68,-1.38 -9.4,-1.38 -3.72,0 -7,0.53 -9.83,1.6 -2.83,1.06 -5.2,2.52 -7.11,4.35 -1.91,1.84 -3.36,3.96 -4.35,6.39 -0.99,2.42 -1.49,4.95 -1.49,7.62 0,3.49 0.75,6.37 2.22,8.64 1.47,2.27 3.41,4.21 5.83,5.81 2.43,1.59 5.18,2.93 8.25,4.02 3.08,1.08 6.22,2.17 9.45,3.23 3.24,1.07 6.42,2.23 9.48,3.51 3.08,1.29 5.81,2.91 8.23,4.84 2.42,1.94 4.37,4.3 5.85,7.13 1.47,2.83 2.2,6.36 2.2,10.57 0,4.3 -0.73,8.34 -2.2,12.15 -1.47,3.79 -3.63,7.1 -6.44,9.92 -2.78,2.81 -6.21,5.01 -10.28,6.63 -4.06,1.61 -8.71,2.44 -13.9,2.44 -6.78,0 -12.61,-1.21 -17.47,-3.63 -4.88,-2.42 -9.17,-5.71 -12.84,-9.88l2.03 -3.18c0.58,-0.73 1.26,-1.09 2.03,-1.09 0.43,0 0.98,0.28 1.66,0.86 0.68,0.58 1.5,1.29 2.47,2.13 0.97,0.85 2.13,1.77 3.49,2.76 1.33,0.99 2.9,1.91 4.7,2.75 1.79,0.85 3.84,1.57 6.16,2.15 2.33,0.58 4.96,0.87 7.91,0.87 4.04,0 7.67,-0.63 10.87,-1.87 3.19,-1.23 5.88,-2.9 8.08,-5.03 2.2,-2.12 3.87,-4.67 5.03,-7.6 1.16,-2.93 1.74,-6.04 1.74,-9.38 0,-3.63 -0.73,-6.62 -2.2,-8.97 -1.47,-2.35 -3.43,-4.3 -5.85,-5.88 -2.43,-1.57 -5.16,-2.88 -8.23,-3.95 -3.07,-1.06 -6.24,-2.1 -9.48,-3.12 -3.23,-1.02 -6.38,-2.15 -9.45,-3.41 -3.08,-1.26 -5.83,-2.88 -8.25,-4.84 -2.42,-1.96 -4.35,-4.4 -5.83,-7.33 -1.47,-2.93 -2.22,-6.57 -2.22,-10.98 0,-3.44 0.65,-6.75 1.96,-9.94 1.31,-3.19 3.21,-6.02 5.73,-8.47 2.52,-2.44 5.64,-4.4 9.35,-5.88 3.69,-1.47 7.91,-2.2 12.65,-2.2 5.33,0 10.11,0.85 14.35,2.56 4.24,1.72 8.08,4.33 11.57,7.81l-1.74 3.34z"/>
   <path id="29" class="fil8" d="M1235.03 3044.36c0,7.96 -1.19,15.09 -3.56,21.43 -2.37,6.34 -5.71,11.73 -10.01,16.21 -4.28,4.45 -9.44,7.86 -15.44,10.23 -6,2.37 -12.66,3.56 -19.94,3.56l-37.42 0 0 -102.77 37.42 0c7.28,0 13.93,1.19 19.94,3.56 5.99,2.37 11.15,5.78 15.44,10.23 4.3,4.45 7.65,9.88 10.01,16.21 2.37,6.34 3.56,13.45 3.56,21.33zm-7.69 0c0,-7.13 -0.99,-13.52 -2.98,-19.13 -1.99,-5.61 -4.77,-10.36 -8.37,-14.2 -3.58,-3.87 -7.91,-6.83 -12.99,-8.85 -5.05,-2.03 -10.69,-3.05 -16.88,-3.05l-29.9 0 0 90.57 29.9 0c6.19,0 11.83,-1.02 16.88,-3.06 5.08,-2.02 9.41,-4.98 12.99,-8.85 3.61,-3.86 6.39,-8.59 8.37,-14.2 1.99,-5.61 2.98,-12.02 2.98,-19.23z"/>
   <polygon id="30" class="fil8" points="1320.59,2993.02 1320.59,2999.26 1266.52,2999.26 1266.52,3040.78 1311.52,3040.78 1311.52,3046.87 1266.52,3046.87 1266.52,3089.55 1320.59,3089.55 1320.59,3095.79 1258.97,3095.79 1258.97,2993.02 "/>
   <path id="31" class="fil8" d="M1358.63 2993.02l5.88 0c0.68,0 1.24,0.17 1.67,0.53 0.43,0.36 0.78,0.85 1.01,1.43l34.98 85.2c0.92,2.23 1.67,4.6 2.25,7.11 0.53,-2.61 1.24,-4.98 2.1,-7.11l34.91 -85.2c0.24,-0.54 0.6,-0.99 1.06,-1.39 0.46,-0.38 1.01,-0.58 1.69,-0.58l5.81 0 -42.38 102.77 -6.6 0 -42.38 -102.77z"/>
   <polygon id="32" class="fil8" points="1476.49,3095.79 1468.94,3095.79 1468.94,2993.02 1476.49,2993.02 "/>
   <path id="33" class="fil8" d="M1559.38 3005.58c-0.44,0.83 -1.07,1.23 -1.89,1.23 -0.63,0 -1.43,-0.45 -2.43,-1.35 -0.99,-0.9 -2.34,-1.9 -4.04,-2.98 -1.69,-1.09 -3.79,-2.08 -6.34,-3.01 -2.54,-0.91 -5.68,-1.38 -9.4,-1.38 -3.72,0 -7,0.53 -9.83,1.6 -2.83,1.06 -5.2,2.52 -7.11,4.35 -1.91,1.84 -3.36,3.96 -4.35,6.39 -0.99,2.42 -1.49,4.95 -1.49,7.62 0,3.49 0.75,6.37 2.22,8.64 1.47,2.27 3.41,4.21 5.83,5.81 2.43,1.59 5.18,2.93 8.25,4.02 3.08,1.08 6.22,2.17 9.45,3.23 3.24,1.07 6.42,2.23 9.48,3.51 3.08,1.29 5.81,2.91 8.23,4.84 2.42,1.94 4.37,4.3 5.85,7.13 1.47,2.83 2.2,6.36 2.2,10.57 0,4.3 -0.73,8.34 -2.2,12.15 -1.47,3.79 -3.63,7.1 -6.44,9.92 -2.78,2.81 -6.21,5.01 -10.28,6.63 -4.06,1.61 -8.71,2.44 -13.9,2.44 -6.78,0 -12.61,-1.21 -17.47,-3.63 -4.88,-2.42 -9.17,-5.71 -12.84,-9.88l2.03 -3.18c0.58,-0.73 1.26,-1.09 2.03,-1.09 0.43,0 0.98,0.28 1.66,0.86 0.68,0.58 1.5,1.29 2.47,2.13 0.97,0.85 2.13,1.77 3.49,2.76 1.33,0.99 2.9,1.91 4.7,2.75 1.79,0.85 3.84,1.57 6.16,2.15 2.33,0.58 4.96,0.87 7.91,0.87 4.04,0 7.67,-0.63 10.87,-1.87 3.19,-1.23 5.88,-2.9 8.08,-5.03 2.2,-2.12 3.87,-4.67 5.03,-7.6 1.16,-2.93 1.74,-6.04 1.74,-9.38 0,-3.63 -0.73,-6.62 -2.2,-8.97 -1.47,-2.35 -3.43,-4.3 -5.85,-5.88 -2.43,-1.57 -5.16,-2.88 -8.23,-3.95 -3.07,-1.06 -6.24,-2.1 -9.48,-3.12 -3.23,-1.02 -6.38,-2.15 -9.45,-3.41 -3.08,-1.26 -5.83,-2.88 -8.25,-4.84 -2.42,-1.96 -4.35,-4.4 -5.83,-7.33 -1.47,-2.93 -2.22,-6.57 -2.22,-10.98 0,-3.44 0.65,-6.75 1.96,-9.94 1.31,-3.19 3.21,-6.02 5.73,-8.47 2.52,-2.44 5.64,-4.4 9.35,-5.88 3.69,-1.47 7.91,-2.2 12.65,-2.2 5.33,0 10.11,0.85 14.35,2.56 4.24,1.72 8.08,4.33 11.57,7.81l-1.74 3.34z"/>
   <polygon id="34" class="fil8" points="1652.71,2993.02 1652.71,2999.41 1616.64,2999.41 1616.64,3095.79 1609.24,3095.79 1609.24,2999.41 1572.95,2999.41 1572.95,2993.02 "/>
   <path id="35" class="fil8" d="M1753.29 3044.41c0,7.94 -1.18,15.14 -3.55,21.63 -2.38,6.46 -5.71,11.98 -10.02,16.57 -4.27,4.58 -9.43,8.11 -15.43,10.6 -6,2.49 -12.66,3.74 -19.94,3.74 -7.2,0 -13.82,-1.26 -19.81,-3.74 -6,-2.5 -11.15,-6.02 -15.44,-10.6 -4.3,-4.59 -7.66,-10.11 -10.06,-16.57 -2.4,-6.49 -3.58,-13.69 -3.58,-21.63 0,-7.88 1.18,-15.07 3.58,-21.55 2.4,-6.47 5.76,-11.98 10.06,-16.58 4.28,-4.57 9.43,-8.13 15.44,-10.64 5.99,-2.52 12.61,-3.77 19.81,-3.77 7.28,0 13.93,1.26 19.94,3.75 5.99,2.49 11.15,6.04 15.43,10.64 4.31,4.6 7.65,10.13 10.02,16.6 2.37,6.48 3.55,13.67 3.55,21.55zm-7.68 -0.05c0,-7.16 -0.99,-13.59 -2.98,-19.3 -1.99,-5.71 -4.77,-10.57 -8.37,-14.54 -3.58,-3.97 -7.93,-6.99 -12.99,-9.1 -5.08,-2.1 -10.69,-3.16 -16.88,-3.16 -6.1,0 -11.66,1.06 -16.7,3.16 -5.06,2.11 -9.41,5.13 -13.04,9.1 -3.66,3.97 -6.49,8.83 -8.49,14.54 -2,5.71 -3,12.14 -3,19.3 0,7.23 0.99,13.67 3,19.38 2,5.69 4.83,10.5 8.49,14.49 3.63,3.96 7.98,6.99 13.04,9.07 5.03,2.08 10.59,3.12 16.7,3.12 6.19,0 11.8,-1.03 16.88,-3.12 5.06,-2.08 9.41,-5.11 12.99,-9.07 3.61,-3.99 6.39,-8.8 8.37,-14.49 1.99,-5.71 2.98,-12.15 2.98,-19.38z"/>
   <path id="36" class="fil8" d="M1787.04 3049.34l0 46.45 -7.4 0 0 -102.77 26.2 0c11.85,0 20.7,2.3 26.56,6.87 5.86,4.58 8.78,11.28 8.78,20.15 0,3.92 -0.68,7.5 -2.02,10.74 -1.36,3.24 -3.29,6.09 -5.84,8.54 -2.54,2.45 -5.61,4.45 -9.19,6.02 -3.59,1.57 -7.63,2.61 -12.13,3.1 1.17,0.73 2.2,1.7 3.12,2.91l35.42 44.44 -6.46 0c-0.78,0 -1.42,-0.15 -1.99,-0.43 -0.56,-0.29 -1.11,-0.78 -1.64,-1.45l-32.93 -41.66c-0.83,-1.07 -1.69,-1.82 -2.63,-2.25 -0.97,-0.44 -2.43,-0.66 -4.4,-0.66l-13.45 0zm0 -5.37l17.86 0c4.54,0 8.64,-0.56 12.23,-1.65 3.61,-1.08 6.65,-2.65 9.15,-4.69 2.5,-2.03 4.38,-4.48 5.68,-7.36 1.31,-2.85 1.97,-6.09 1.97,-9.67 0,-7.33 -2.4,-12.77 -7.18,-16.31 -4.8,-3.56 -11.76,-5.32 -20.9,-5.32l-18.8 0 0 45z"/>
   <polygon id="37" class="fil8" points="1879.22,3095.79 1871.67,3095.79 1871.67,2993.02 1879.22,2993.02 "/>
   <path id="38" class="fil8" d="M1989.76 3095.79l-5.74 0c-0.68,0 -1.23,-0.2 -1.67,-0.56 -0.43,-0.36 -0.78,-0.82 -1.01,-1.4l-12.13 -29.83 -50.44 0 -12.04 29.83c-0.2,0.53 -0.54,0.99 -1.02,1.38 -0.48,0.38 -1.06,0.58 -1.74,0.58l-5.66 0 42.02 -102.77 7.4 0 42.03 102.77zm-68.74 -37.15l46.02 0 -20.98 -51.9c-0.33,-0.83 -0.67,-1.77 -1.01,-2.81 -0.33,-1.03 -0.68,-2.12 -1.01,-3.28 -0.34,1.16 -0.68,2.25 -1.02,3.28 -0.33,1.04 -0.68,2.01 -1.01,2.88l-20.98 51.83z"/>
   <path id="39" class="fil8" d="M828.7 3218.54c0,7.96 -1.19,15.09 -3.56,21.43 -2.37,6.34 -5.71,11.73 -10.01,16.21 -4.28,4.45 -9.44,7.86 -15.44,10.23 -6,2.37 -12.66,3.56 -19.94,3.56l-37.42 0 0 -102.77 37.42 0c7.28,0 13.93,1.19 19.94,3.56 5.99,2.37 11.15,5.78 15.44,10.23 4.3,4.45 7.65,9.88 10.01,16.21 2.37,6.34 3.56,13.45 3.56,21.33zm-7.69 0c0,-7.13 -0.99,-13.52 -2.98,-19.13 -1.99,-5.61 -4.77,-10.36 -8.37,-14.2 -3.58,-3.87 -7.91,-6.83 -12.99,-8.85 -5.05,-2.03 -10.69,-3.05 -16.88,-3.05l-29.9 0 0 90.57 29.9 0c6.19,0 11.83,-1.02 16.88,-3.06 5.08,-2.02 9.41,-4.98 12.99,-8.85 3.61,-3.86 6.39,-8.59 8.37,-14.2 1.99,-5.61 2.98,-12.02 2.98,-19.23z"/>
   <polygon id="40" class="fil8" points="914.26,3167.2 914.26,3173.44 860.19,3173.44 860.19,3214.96 905.19,3214.96 905.19,3221.05 860.19,3221.05 860.19,3263.73 914.26,3263.73 914.26,3269.97 852.65,3269.97 852.65,3167.2 "/>
   <path id="41" class="fil8" d="M952.3 3167.2l5.88 0c0.68,0 1.24,0.17 1.67,0.53 0.43,0.36 0.78,0.85 1.01,1.43l34.98 85.2c0.92,2.23 1.67,4.6 2.25,7.11 0.53,-2.61 1.24,-4.98 2.1,-7.11l34.91 -85.2c0.24,-0.54 0.6,-0.99 1.06,-1.39 0.46,-0.38 1.01,-0.58 1.69,-0.58l5.81 0 -42.38 102.77 -6.6 0 -42.38 -102.77z"/>
   <polygon id="42" class="fil8" points="1121.62,3167.2 1121.62,3173.44 1067.55,3173.44 1067.55,3214.96 1112.55,3214.96 1112.55,3221.05 1067.55,3221.05 1067.55,3263.73 1121.62,3263.73 1121.62,3269.97 1060,3269.97 1060,3167.2 "/>
   <path id="43" class="fil8" d="M1155.95 3269.97l-7.55 0 0 -102.77 7.55 0 0 102.77zm17.41 -128.46l-21.24 15.67c-0.48,0.33 -0.94,0.56 -1.36,0.68 -0.41,0.12 -0.89,0.2 -1.47,0.2l-5.11 0 16.53 -14.96c0.68,-0.63 1.31,-1.06 1.89,-1.28 0.58,-0.22 1.45,-0.31 2.61,-0.31l8.15 0z"/>
   <path id="44" class="fil8" d="M1263.88 3252.7c0.48,0 0.89,0.17 1.23,0.51l2.91 3.12c-2.13,2.27 -4.45,4.3 -6.97,6.11 -2.52,1.82 -5.26,3.37 -8.22,4.65 -2.98,1.29 -6.25,2.27 -9.8,2.98 -3.56,0.7 -7.48,1.06 -11.73,1.06 -7.11,0 -13.62,-1.26 -19.56,-3.74 -5.93,-2.5 -11.03,-6.02 -15.26,-10.6 -4.24,-4.57 -7.55,-10.11 -9.94,-16.6 -2.4,-6.48 -3.58,-13.69 -3.58,-21.65 0,-7.79 1.23,-14.9 3.69,-21.33 2.48,-6.44 5.91,-11.98 10.34,-16.6 4.42,-4.62 9.75,-8.21 15.92,-10.74 6.16,-2.55 12.96,-3.82 20.41,-3.82 3.72,0 7.14,0.27 10.24,0.83 3.1,0.55 5.99,1.36 8.68,2.39 2.69,1.04 5.21,2.35 7.58,3.9 2.37,1.54 4.7,3.33 6.97,5.37l-2.25 3.27c-0.38,0.58 -0.99,0.86 -1.82,0.86 -0.43,0 -0.98,-0.27 -1.66,-0.78 -0.68,-0.5 -1.52,-1.13 -2.56,-1.89 -1.04,-0.75 -2.3,-1.57 -3.77,-2.47 -1.48,-0.89 -3.24,-1.71 -5.28,-2.47 -2.03,-0.75 -4.38,-1.38 -7.04,-1.89 -2.66,-0.5 -5.69,-0.75 -9.08,-0.75 -6.24,0 -11.97,1.09 -17.2,3.24 -5.23,2.15 -9.73,5.23 -13.5,9.22 -3.77,3.99 -6.7,8.82 -8.8,14.51 -2.1,5.71 -3.16,12.07 -3.16,19.13 0,7.28 1.04,13.77 3.12,19.48 2.08,5.71 4.96,10.54 8.64,14.49 3.68,3.94 8.03,6.97 13.04,9.07 5.01,2.1 10.43,3.16 16.28,3.16 3.68,0 6.97,-0.24 9.85,-0.73 2.88,-0.48 5.51,-1.21 7.93,-2.17 2.42,-0.97 4.67,-2.15 6.75,-3.56 2.08,-1.41 4.14,-3.05 6.17,-4.93 0.25,-0.2 0.48,-0.36 0.7,-0.49 0.22,-0.12 0.46,-0.17 0.76,-0.17z"/>
   <path id="45" class="fil8" d="M1329.38 3264.74c4.91,0 9.34,-0.86 13.21,-2.58 3.89,-1.72 7.21,-4.09 9.9,-7.16 2.71,-3.05 4.79,-6.62 6.22,-10.79 1.42,-4.14 2.12,-8.61 2.12,-13.4l0 -63.6 7.41 0 0 63.6c0,5.66 -0.9,10.97 -2.69,15.87 -1.79,4.91 -4.35,9.22 -7.71,12.87 -3.36,3.66 -7.45,6.53 -12.26,8.61 -4.82,2.08 -10.24,3.12 -16.23,3.12 -6,0 -11.4,-1.04 -16.2,-3.12 -4.82,-2.07 -8.9,-4.95 -12.27,-8.61 -3.36,-3.66 -5.95,-7.96 -7.73,-12.87 -1.8,-4.9 -2.69,-10.21 -2.69,-15.87l0 -63.6 7.55 0 0 63.53c0,4.79 0.71,9.27 2.13,13.4 1.42,4.16 3.49,7.74 6.17,10.79 2.68,3.07 5.97,5.46 9.87,7.2 3.87,1.75 8.3,2.61 13.24,2.61z"/>
   <polygon id="46" class="fil8" points="1405.18,3263.58 1453.88,3263.58 1453.88,3269.97 1397.78,3269.97 1397.78,3167.2 1405.18,3167.2 "/>
   <path id="47" class="fil8" d="M1557.81 3218.59c0,7.94 -1.18,15.14 -3.55,21.63 -2.38,6.46 -5.71,11.98 -10.02,16.57 -4.27,4.58 -9.43,8.11 -15.43,10.6 -6,2.49 -12.66,3.74 -19.94,3.74 -7.2,0 -13.82,-1.26 -19.81,-3.74 -6,-2.5 -11.15,-6.02 -15.44,-10.6 -4.3,-4.59 -7.66,-10.11 -10.06,-16.57 -2.4,-6.49 -3.58,-13.69 -3.58,-21.63 0,-7.88 1.18,-15.07 3.58,-21.55 2.4,-6.47 5.76,-11.98 10.06,-16.58 4.28,-4.57 9.43,-8.13 15.44,-10.64 5.99,-2.52 12.61,-3.77 19.81,-3.77 7.28,0 13.93,1.26 19.94,3.75 5.99,2.49 11.15,6.04 15.43,10.64 4.31,4.6 7.65,10.13 10.02,16.6 2.37,6.48 3.55,13.67 3.55,21.55zm-7.68 -0.05c0,-7.16 -0.99,-13.59 -2.98,-19.3 -1.99,-5.71 -4.77,-10.57 -8.37,-14.54 -3.58,-3.97 -7.93,-6.99 -12.99,-9.1 -5.08,-2.1 -10.69,-3.16 -16.88,-3.16 -6.1,0 -11.66,1.06 -16.7,3.16 -5.06,2.11 -9.41,5.13 -13.04,9.1 -3.66,3.97 -6.49,8.83 -8.49,14.54 -2,5.71 -3,12.14 -3,19.3 0,7.23 0.99,13.67 3,19.38 2,5.69 4.83,10.5 8.49,14.49 3.63,3.96 7.98,6.99 13.04,9.07 5.03,2.08 10.59,3.12 16.7,3.12 6.19,0 11.8,-1.03 16.88,-3.12 5.06,-2.08 9.41,-5.11 12.99,-9.07 3.61,-3.99 6.39,-8.8 8.37,-14.49 1.99,-5.71 2.98,-12.15 2.98,-19.38z"/>
   <path id="48" class="fil8" d="M1631.62 3179.76c-0.44,0.83 -1.07,1.23 -1.89,1.23 -0.63,0 -1.43,-0.45 -2.43,-1.35 -0.99,-0.9 -2.34,-1.9 -4.04,-2.98 -1.69,-1.09 -3.79,-2.08 -6.34,-3.01 -2.54,-0.91 -5.68,-1.38 -9.4,-1.38 -3.72,0 -7,0.53 -9.83,1.6 -2.83,1.06 -5.2,2.52 -7.11,4.35 -1.91,1.84 -3.36,3.96 -4.35,6.39 -0.99,2.42 -1.49,4.95 -1.49,7.62 0,3.49 0.75,6.37 2.22,8.64 1.47,2.27 3.41,4.21 5.83,5.81 2.43,1.59 5.18,2.93 8.25,4.02 3.08,1.08 6.22,2.17 9.45,3.23 3.24,1.07 6.42,2.23 9.48,3.51 3.08,1.29 5.81,2.91 8.23,4.84 2.42,1.94 4.37,4.3 5.85,7.13 1.47,2.83 2.2,6.36 2.2,10.57 0,4.3 -0.73,8.34 -2.2,12.15 -1.47,3.79 -3.63,7.1 -6.44,9.92 -2.78,2.81 -6.21,5.01 -10.28,6.63 -4.06,1.61 -8.71,2.44 -13.9,2.44 -6.78,0 -12.61,-1.21 -17.47,-3.63 -4.88,-2.42 -9.17,-5.71 -12.84,-9.88l2.03 -3.18c0.58,-0.73 1.26,-1.09 2.03,-1.09 0.43,0 0.98,0.28 1.66,0.86 0.68,0.58 1.5,1.29 2.47,2.13 0.97,0.85 2.13,1.77 3.49,2.76 1.33,0.99 2.9,1.91 4.7,2.75 1.79,0.85 3.84,1.57 6.16,2.15 2.33,0.58 4.96,0.87 7.91,0.87 4.04,0 7.67,-0.63 10.87,-1.87 3.19,-1.23 5.88,-2.9 8.08,-5.03 2.2,-2.12 3.87,-4.67 5.03,-7.6 1.16,-2.93 1.74,-6.04 1.74,-9.38 0,-3.63 -0.73,-6.62 -2.2,-8.97 -1.47,-2.35 -3.43,-4.3 -5.85,-5.88 -2.43,-1.57 -5.16,-2.88 -8.23,-3.95 -3.07,-1.06 -6.24,-2.1 -9.48,-3.12 -3.23,-1.02 -6.38,-2.15 -9.45,-3.41 -3.08,-1.26 -5.83,-2.88 -8.25,-4.84 -2.42,-1.96 -4.35,-4.4 -5.83,-7.33 -1.47,-2.93 -2.22,-6.57 -2.22,-10.98 0,-3.44 0.65,-6.75 1.96,-9.94 1.31,-3.19 3.21,-6.02 5.73,-8.47 2.52,-2.44 5.64,-4.4 9.35,-5.88 3.69,-1.47 7.91,-2.2 12.65,-2.2 5.33,0 10.11,0.85 14.35,2.56 4.24,1.72 8.08,4.33 11.57,7.81l-1.74 3.34z"/>
  </g>
 </g>
</svg>
