<?xml version="1.0" encoding="UTF-8"?>
<!DOCTYPE svg PUBLIC "-//W3C//DTD SVG 1.1//EN" "http://www.w3.org/Graphics/SVG/1.1/DTD/svg11.dtd">
<!-- Creator: CorelDRAW 2018 (64 Bit Versão de avaliação) -->
<svg xmlns="http://www.w3.org/2000/svg" xml:space="preserve" width="11.728mm" height="16.2273mm" version="1.1" style="shape-rendering:geometricPrecision; text-rendering:geometricPrecision; image-rendering:optimizeQuality; fill-rule:evenodd; clip-rule:evenodd"
viewBox="0 0 157.89 218.47"
 xmlns:xlink="http://www.w3.org/1999/xlink">
 <defs>
  <style type="text/css">
   <![CDATA[
    .fil5 {fill:none}
    .fil2 {fill:#08A045}
    .fil4 {fill:#0B6E4F}
    .fil3 {fill:#6BBF59}
    .fil1 {fill:#FED141}
    .fil0 {fill:white}
    .fil6 {fill:white;fill-rule:nonzero}
   ]]>
  </style>
     <clipPath id="id0">
      <path d="M99.23 129.53c23.07,0 41.78,-18.71 41.78,-41.78 0,-23.07 -18.71,-41.78 -41.78,-41.78 -23.07,0 -41.78,18.71 -41.78,41.78 0,23.07 18.71,41.78 41.78,41.78z"/>
     </clipPath>
 </defs>
 <g id="Camada_x0020_1">
  <metadata id="CorelCorpID_0Corel-Layer"/>
  <g id="_2231577127504">
   <g>
    <path class="fil0" d="M109.43 16.08c37.14,21.45 31.51,11.69 31.51,54.58 0,42.89 5.63,33.13 -31.51,54.58 -37.14,21.44 -25.88,21.44 -63.02,0 -37.14,-21.45 -31.51,-11.69 -31.51,-54.58 0,-42.89 -5.63,-33.13 31.51,-54.58 37.14,-21.45 25.88,-21.45 63.02,0z"/>
    <path class="fil1" d="M107.36 19.74c34.71,20.04 29.44,10.92 29.44,51 0,0.39 0,0.76 0,1.14l0 0.04 -117.78 0 0 -0.14c0,-0.34 0,-0.68 0,-1.03 0,-40.08 -5.27,-30.96 29.44,-51 34.71,-20.04 24.18,-20.04 58.89,0z"/>
    <path class="fil2" d="M136.81 72.89c0.1,38.72 4.92,29.98 -29.45,49.82 -34.71,20.04 -24.18,20.04 -58.89,0 -34.36,-19.84 -29.55,-11.11 -29.45,-49.82l117.78 0z"/>
    <path class="fil3" d="M122.04 60.62l-88.33 0 0 -22.45c0,-8.13 6.59,-14.72 14.72,-14.72 8.13,0 14.72,6.59 14.72,14.72 0,-8.13 6.59,-14.72 14.72,-14.72 8.13,0 14.72,6.59 14.72,14.72 0,-8.13 6.59,-14.72 14.72,-14.72 8.13,0 14.72,6.59 14.72,14.72l0 22.45zm-14.72 -38.89c3.56,0 6.44,-2.88 6.44,-6.44 0,-3.56 -2.88,-6.44 -6.44,-6.44 -3.56,0 -6.44,2.88 -6.44,6.44 0,3.56 2.88,6.44 6.44,6.44zm-29.44 0c3.56,0 6.44,-2.88 6.44,-6.44 0,-3.56 -2.88,-6.44 -6.44,-6.44 -3.56,0 -6.44,2.88 -6.44,6.44 0,3.56 2.88,6.44 6.44,6.44zm-29.44 0c3.56,0 6.44,-2.88 6.44,-6.44 0,-3.56 -2.88,-6.44 -6.44,-6.44 -3.56,0 -6.44,2.88 -6.44,6.44 0,3.56 2.88,6.44 6.44,6.44z"/>
    <path class="fil2" d="M122.09 36.68c4.47,0 8.09,-3.43 8.09,-7.66 0,-4.23 -3.62,-7.66 -8.09,-7.66 -4.47,0 -8.09,3.43 -8.09,7.66 0,4.23 3.62,7.66 8.09,7.66zm-103.05 39.57l0 -24.18c0,-7.7 6.59,-13.94 14.72,-13.94 8.13,0 14.72,6.24 14.72,13.94 0,-7.7 6.59,-13.94 14.72,-13.94 8.13,0 14.72,6.24 14.72,13.94 0,-7.7 6.59,-13.94 14.72,-13.94 8.13,0 14.72,6.24 14.72,13.94 0,-7.7 6.59,-13.94 14.72,-13.94 8.13,0 14.72,6.24 14.72,13.94l0 24.18 -117.77 0zm14.72 -39.57c4.47,0 8.09,-3.43 8.09,-7.66 0,-4.23 -3.62,-7.66 -8.09,-7.66 -4.47,0 -8.09,3.43 -8.09,7.66 0,4.23 3.62,7.66 8.09,7.66zm29.44 0c4.47,0 8.09,-3.43 8.09,-7.66 0,-4.23 -3.62,-7.66 -8.09,-7.66 -4.47,0 -8.09,3.43 -8.09,7.66 0,4.23 3.62,7.66 8.09,7.66zm29.44 0c4.47,0 8.09,-3.43 8.09,-7.66 0,-4.23 -3.62,-7.66 -8.09,-7.66 -4.47,0 -8.09,3.43 -8.09,7.66 0,4.23 3.62,7.66 8.09,7.66z"/>
    <path class="fil0" d="M91.63 81.29c3.57,-3.57 9.36,-3.57 12.93,0 3.57,3.57 3.57,9.36 0,12.93l-40.82 40.82c-3.57,3.57 -9.36,3.57 -12.93,0 -3.57,-3.57 -3.57,-9.36 0,-12.93l40.82 -40.82z"/>
    <path class="fil1" d="M67.58 67.19c2.57,0.18 5.06,0.46 7.47,0.83 0.34,0.05 0.67,0.11 1.01,0.17 0.12,0.01 0.25,0.03 0.37,0.05 0.85,0.15 1.53,0.49 2.04,1.04 0.26,0.27 0.47,0.59 0.64,0.95l5.07 10.28c0.57,0.97 0.96,1.59 1.19,1.85l3.01 3.42c0.17,0.2 0.32,0.4 0.46,0.6 0.87,1.26 1.21,2.74 1.02,4.45 -0.08,0.75 -0.15,1.47 -0.23,2.17 -0,0.05 -0.01,0.1 -0.01,0.15 -0.17,1.41 -0.35,2.73 -0.54,3.96 0,3.82 0,7.63 0,11.45 -0,0.53 -0.19,0.99 -0.57,1.36 -0.34,0.34 -0.74,0.53 -1.21,0.56l-4.59 0c-0.47,-0.03 -0.87,-0.22 -1.2,-0.56 -0.37,-0.36 -0.56,-0.8 -0.58,-1.31l0 -3.75c-6.54,0.45 -13.1,0.67 -19.66,0.67 -4.96,0 -9.92,-0.13 -14.87,-0.38 -0.41,-0.02 -0.82,-0.04 -1.23,-0.06 -1.19,-0.07 -2.38,-0.14 -3.58,-0.22l0 3.75c-0.01,0.51 -0.2,0.95 -0.57,1.31 -0.34,0.34 -0.74,0.53 -1.21,0.56l-4.59 0c-0.47,-0.03 -0.88,-0.22 -1.22,-0.56 -0.37,-0.37 -0.56,-0.83 -0.56,-1.36 0,-3.82 0,-7.63 0,-11.45 -0.19,-1.22 -0.37,-2.54 -0.54,-3.96 -0,-0.05 -0.01,-0.1 -0.01,-0.15 -0.08,-0.7 -0.16,-1.42 -0.23,-2.17 -0.19,-1.71 0.14,-3.19 1.02,-4.45 0.14,-0.21 0.29,-0.41 0.47,-0.6l3.01 -3.42c0.23,-0.26 0.63,-0.88 1.2,-1.85l5.07 -10.28c0.17,-0.36 0.38,-0.68 0.63,-0.95 0.51,-0.55 1.19,-0.9 2.04,-1.04 0.12,-0.01 0.24,-0.03 0.36,-0.05 0.34,-0.06 0.68,-0.11 1.02,-0.17 2.4,-0.37 4.89,-0.65 7.47,-0.83 3.67,-0.28 8.96,-0.28 12.63,0zm-9.37 3.02c-0.06,0 -0.12,0.01 -0.18,0.01l-2.31 0.09c-0.17,0.02 -0.34,0.03 -0.5,0.05 -1.78,0.11 -3.52,0.26 -5.23,0.45 -0.56,0.07 -1.11,0.14 -1.67,0.21 -0.05,0 -0.09,0.01 -0.14,0.01 -0.32,0.05 -0.61,0.14 -0.87,0.26 -0.53,0.24 -0.93,0.63 -1.21,1.17l-3.02 6.41c0.89,-0.05 1.79,-0.09 2.68,-0.13 5.17,-0.23 10.33,-0.35 15.48,-0.35 5.15,0.01 10.31,0.13 15.47,0.35 0.89,0.04 1.79,0.08 2.68,0.13l-3.03 -6.41c-0.27,-0.54 -0.67,-0.93 -1.19,-1.17 -0.26,-0.13 -0.55,-0.21 -0.88,-0.26 -0.04,-0 -0.09,-0.01 -0.13,-0.01 -0.55,-0.08 -1.1,-0.15 -1.66,-0.21 -1.72,-0.19 -3.47,-0.34 -5.25,-0.45 -0.16,-0.01 -0.33,-0.03 -0.49,-0.05l-2.31 -0.09c-0.06,-0 -0.12,-0.01 -0.18,-0.01 -0.03,-0 -0.06,-0.01 -0.09,-0.01 -0.94,-0.02 -1.93,-0.04 -2.95,-0.06 -1.03,0.01 -2.01,0.03 -2.96,0.06 -0.03,0 -0.06,0.01 -0.08,0.01zm-7.31 21.06c2.86,2.87 6.31,4.3 10.35,4.3 0.07,0 0.14,0 0.21,0l0.01 0c3.94,-0.05 7.32,-1.48 10.14,-4.3 0.45,-0.45 0.87,-0.92 1.25,-1.41l-23.22 0c0.38,0.48 0.8,0.95 1.26,1.41zm-8.48 -4.08c-0.63,-0.63 -1.39,-0.95 -2.28,-0.95 -0.9,0 -1.67,0.32 -2.3,0.95 -0.63,0.63 -0.95,1.39 -0.95,2.28 0,0.9 0.32,1.67 0.95,2.3 0.63,0.63 1.4,0.95 2.3,0.95 0.89,-0 1.65,-0.32 2.28,-0.95 0.64,-0.63 0.95,-1.4 0.96,-2.3 -0,-0.89 -0.32,-1.65 -0.96,-2.28zm37.69 0c-0.64,0.63 -0.95,1.39 -0.96,2.28 0,0.9 0.32,1.67 0.96,2.3 0.63,0.63 1.39,0.95 2.28,0.95 0.9,-0 1.67,-0.32 2.3,-0.95 0.63,-0.63 0.95,-1.4 0.95,-2.3 -0,-0.89 -0.32,-1.65 -0.95,-2.28 -0.63,-0.63 -1.4,-0.95 -2.3,-0.95 -0.89,0 -1.65,0.32 -2.28,0.95z"/>
    <path class="fil1" d="M99.23 129.53c23.07,0 41.78,-18.71 41.78,-41.78 0,-23.07 -18.71,-41.78 -41.78,-41.78 -23.07,0 -41.78,18.71 -41.78,41.78 0,23.07 18.71,41.78 41.78,41.78z"/>
    <g style="clip-path:url(#id0)">
     <g>
      <path id="1" class="fil4" d="M82.74 52.83c4.22,0.3 8.3,0.75 12.24,1.36 0.55,0.09 1.1,0.18 1.65,0.27 0.2,0.03 0.41,0.05 0.61,0.08 1.39,0.24 2.5,0.81 3.34,1.71 0.42,0.44 0.77,0.96 1.05,1.56l8.32 16.84c0.93,1.59 1.58,2.61 1.95,3.04l4.93 5.6c0.28,0.32 0.53,0.65 0.76,0.99 1.43,2.07 1.98,4.5 1.66,7.29 -0.12,1.22 -0.25,2.41 -0.38,3.56 -0.01,0.08 -0.01,0.16 -0.01,0.24 -0.27,2.32 -0.57,4.48 -0.88,6.48 0,6.26 0,12.51 0,18.77 -0.01,0.87 -0.32,1.62 -0.93,2.23 -0.56,0.56 -1.22,0.87 -1.98,0.92l-7.52 0c-0.76,-0.05 -1.42,-0.35 -1.97,-0.92 -0.61,-0.59 -0.92,-1.31 -0.95,-2.15l0 -6.15c-10.73,0.74 -21.47,1.1 -32.23,1.1 -8.13,0 -16.25,-0.21 -24.37,-0.63 -0.67,-0.03 -1.34,-0.07 -2.01,-0.11 -1.95,-0.11 -3.91,-0.23 -5.86,-0.37l0 6.15c-0.02,0.84 -0.33,1.56 -0.93,2.15 -0.55,0.56 -1.21,0.87 -1.98,0.92l-7.52 0c-0.77,-0.05 -1.44,-0.35 -2,-0.92 -0.61,-0.61 -0.92,-1.35 -0.92,-2.23 0,-6.25 0,-12.51 0,-18.77 -0.32,-2.01 -0.61,-4.17 -0.89,-6.48 -0,-0.08 -0.01,-0.16 -0.01,-0.24 -0.13,-1.15 -0.26,-2.33 -0.38,-3.56 -0.32,-2.8 0.24,-5.23 1.66,-7.29 0.23,-0.34 0.48,-0.67 0.76,-0.99l4.93 -5.6c0.38,-0.43 1.04,-1.44 1.97,-3.04l8.32 -16.84c0.28,-0.6 0.62,-1.12 1.04,-1.56 0.84,-0.9 1.95,-1.47 3.34,-1.71 0.2,-0.03 0.4,-0.05 0.6,-0.08 0.55,-0.09 1.11,-0.19 1.66,-0.27 3.94,-0.61 8.02,-1.06 12.24,-1.36 6.02,-0.45 14.69,-0.46 20.71,0zm-15.35 4.94c-0.1,0 -0.19,0.01 -0.29,0.01l-3.78 0.15c-0.28,0.03 -0.55,0.05 -0.83,0.08 -2.91,0.18 -5.77,0.42 -8.57,0.73 -0.92,0.11 -1.83,0.23 -2.73,0.35 -0.08,0.01 -0.15,0.01 -0.23,0.01 -0.52,0.08 -1,0.22 -1.42,0.43 -0.87,0.39 -1.53,1.03 -1.98,1.92l-4.94 10.51c1.46,-0.08 2.93,-0.15 4.39,-0.21 8.47,-0.37 16.93,-0.57 25.37,-0.58 8.44,0.01 16.89,0.21 25.36,0.58 1.46,0.06 2.93,0.14 4.39,0.21l-4.96 -10.51c-0.45,-0.89 -1.1,-1.53 -1.95,-1.92 -0.43,-0.21 -0.9,-0.35 -1.43,-0.43 -0.07,-0.01 -0.14,-0.01 -0.21,-0.01 -0.9,-0.13 -1.8,-0.24 -2.72,-0.35 -2.81,-0.31 -5.68,-0.56 -8.61,-0.73 -0.27,-0.02 -0.54,-0.05 -0.81,-0.08l-3.78 -0.15c-0.1,-0.01 -0.19,-0.01 -0.29,-0.01 -0.05,-0.01 -0.1,-0.01 -0.15,-0.02 -1.55,-0.04 -3.16,-0.07 -4.84,-0.09 -1.68,0.02 -3.3,0.05 -4.85,0.09 -0.05,0.01 -0.09,0.01 -0.14,0.02zm-11.98 34.51c4.69,4.7 10.35,7.05 16.97,7.05 0.12,0 0.23,0 0.35,0l0.01 0c6.46,-0.08 12,-2.43 16.62,-7.05 0.74,-0.74 1.42,-1.51 2.04,-2.3l-38.05 0c0.63,0.79 1.31,1.56 2.06,2.3zm-13.9 -6.68c-1.03,-1.04 -2.28,-1.55 -3.74,-1.56 -1.47,0 -2.73,0.52 -3.77,1.56 -1.04,1.03 -1.56,2.27 -1.56,3.74 0,1.47 0.52,2.73 1.56,3.77 1.04,1.04 2.29,1.55 3.77,1.56 1.46,-0 2.71,-0.52 3.74,-1.56 1.04,-1.04 1.56,-2.3 1.57,-3.77 -0.01,-1.46 -0.53,-2.71 -1.57,-3.74zm61.77 0c-1.04,1.03 -1.57,2.27 -1.57,3.74 0.01,1.47 0.53,2.73 1.57,3.77 1.03,1.04 2.27,1.55 3.74,1.56 1.47,-0 2.73,-0.52 3.77,-1.56 1.04,-1.04 1.55,-2.3 1.56,-3.77 -0,-1.46 -0.52,-2.71 -1.56,-3.74 -1.04,-1.04 -2.29,-1.55 -3.77,-1.56 -1.46,0 -2.71,0.52 -3.74,1.56z"/>
     </g>
    </g>
    <path class="fil5" d="M99.23 129.53c23.07,0 41.78,-18.71 41.78,-41.78 0,-23.07 -18.71,-41.78 -41.78,-41.78 -23.07,0 -41.78,18.71 -41.78,41.78 0,23.07 18.71,41.78 41.78,41.78z"/>
    <path class="fil6" d="M99.23 127.25c10.91,0 20.78,-4.42 27.93,-11.57 7.15,-7.15 11.57,-17.02 11.57,-27.93 0,-10.9 -4.42,-20.78 -11.57,-27.93 -7.15,-7.15 -17.02,-11.57 -27.93,-11.57 -10.91,0 -20.78,4.42 -27.93,11.57 -7.15,7.15 -11.57,17.02 -11.57,27.93 0,10.91 4.42,20.78 11.57,27.93 7.15,7.15 17.02,11.57 27.93,11.57zm31.16 -8.33c-7.97,7.97 -18.99,12.91 -31.16,12.91 -12.17,0 -23.18,-4.93 -31.16,-12.91 -7.97,-7.97 -12.91,-18.99 -12.91,-31.16 0,-12.17 4.93,-23.18 12.91,-31.16 7.97,-7.97 18.99,-12.91 31.16,-12.91 12.17,0 23.18,4.93 31.16,12.91 7.97,7.97 12.91,18.99 12.91,31.16 0,12.17 -4.93,23.18 -12.91,31.16z"/>
   </g>
   <path class="fil6" d="M26.6 179.57l-3.92 0c-0.44,0 -0.8,-0.11 -1.08,-0.33 -0.28,-0.22 -0.49,-0.49 -0.62,-0.82l-2.04 -5.56 -11.29 0 -2.04 5.56c-0.1,0.29 -0.29,0.55 -0.59,0.79 -0.29,0.24 -0.66,0.36 -1.09,0.36l-3.94 0 10.71 -27.26 5.18 0 10.71 27.26zm-17.65 -10.27l8.69 0 -3.32 -9.07c-0.15,-0.4 -0.32,-0.88 -0.5,-1.43 -0.18,-0.55 -0.36,-1.14 -0.54,-1.78 -0.18,0.64 -0.34,1.24 -0.51,1.79 -0.17,0.55 -0.34,1.04 -0.5,1.45l-3.32 9.03z"/>
   <path id="1" class="fil6" d="M47.19 173.14c0.28,0 0.52,0.11 0.72,0.32l2 2.17c-1.11,1.37 -2.46,2.42 -4.08,3.15 -1.62,0.73 -3.56,1.09 -5.82,1.09 -2.02,0 -3.84,-0.35 -5.46,-1.04 -1.62,-0.69 -3,-1.65 -4.14,-2.89 -1.14,-1.23 -2.02,-2.7 -2.63,-4.41 -0.61,-1.71 -0.92,-3.58 -0.92,-5.6 0,-2.05 0.34,-3.93 1.02,-5.63 0.68,-1.7 1.63,-3.17 2.87,-4.4 1.23,-1.23 2.71,-2.19 4.42,-2.88 1.72,-0.69 3.61,-1.02 5.68,-1.02 2.02,0 3.8,0.33 5.31,0.97 1.51,0.65 2.81,1.51 3.89,2.59l-1.7 2.36c-0.1,0.15 -0.23,0.28 -0.38,0.4 -0.16,0.11 -0.38,0.17 -0.65,0.17 -0.29,0 -0.58,-0.11 -0.89,-0.34 -0.3,-0.23 -0.69,-0.47 -1.15,-0.74 -0.47,-0.26 -1.05,-0.51 -1.76,-0.74 -0.71,-0.23 -1.62,-0.34 -2.71,-0.34 -1.28,0 -2.46,0.22 -3.53,0.67 -1.07,0.45 -2,1.09 -2.77,1.92 -0.77,0.82 -1.38,1.83 -1.81,3.02 -0.43,1.18 -0.65,2.52 -0.65,4 0,1.53 0.22,2.9 0.65,4.09 0.43,1.19 1.02,2.19 1.76,3.01 0.74,0.82 1.61,1.44 2.62,1.88 1.01,0.43 2.09,0.65 3.24,0.65 0.69,0 1.32,-0.04 1.88,-0.11 0.56,-0.08 1.08,-0.19 1.55,-0.36 0.47,-0.16 0.92,-0.37 1.34,-0.63 0.42,-0.26 0.84,-0.58 1.25,-0.95 0.13,-0.11 0.26,-0.2 0.4,-0.27 0.14,-0.07 0.29,-0.11 0.45,-0.11z"/>
   <polygon id="2" class="fil6" points="70.93,152.31 70.93,156.34 58.84,156.34 58.84,163.88 68.36,163.88 68.36,167.81 58.84,167.81 58.84,175.5 70.93,175.5 70.93,179.57 53.73,179.57 53.73,152.31 "/>
   <path id="3" class="fil6" d="M72.64 152.31l4.09 0c0.44,0 0.8,0.11 1.07,0.32 0.28,0.21 0.48,0.49 0.62,0.83l6.41 16.63c0.21,0.54 0.42,1.13 0.62,1.78 0.19,0.65 0.38,1.33 0.55,2.05 0.29,-1.45 0.65,-2.72 1.08,-3.83l6.39 -16.63c0.11,-0.29 0.31,-0.55 0.6,-0.79 0.29,-0.24 0.65,-0.36 1.07,-0.36l4.09 0 -11.01 27.26 -4.58 0 -11.01 -27.26z"/>
   <polygon id="4" class="fil6" points="107.8,179.57 102.71,179.57 102.71,152.31 107.8,152.31 "/>
   <path id="5" class="fil6" d="M111.25 152.31l4.09 0c0.44,0 0.8,0.11 1.07,0.32 0.28,0.21 0.48,0.49 0.62,0.83l6.41 16.63c0.21,0.54 0.42,1.13 0.62,1.78 0.19,0.65 0.38,1.33 0.55,2.05 0.29,-1.45 0.65,-2.72 1.08,-3.83l6.39 -16.63c0.11,-0.29 0.31,-0.55 0.6,-0.79 0.29,-0.24 0.65,-0.36 1.07,-0.36l4.09 0 -11.01 27.26 -4.58 0 -11.01 -27.26z"/>
   <polygon id="6" class="fil6" points="157.89,152.31 157.89,156.34 145.81,156.34 145.81,163.88 155.33,163.88 155.33,167.81 145.81,167.81 145.81,175.5 157.89,175.5 157.89,179.57 140.7,179.57 140.7,152.31 "/>
   <path class="fil6" d="M20.76 195.12l-0.38 0c-0.05,0 -0.08,-0.01 -0.11,-0.04 -0.03,-0.02 -0.05,-0.05 -0.07,-0.09l-0.81 -1.99 -3.37 0 -0.8 1.99c-0.01,0.04 -0.04,0.07 -0.07,0.09 -0.03,0.03 -0.07,0.04 -0.12,0.04l-0.38 0 2.81 -6.86 0.49 0 2.81 6.86zm-4.59 -2.48l3.07 0 -1.4 -3.47c-0.02,-0.05 -0.04,-0.12 -0.07,-0.19 -0.02,-0.07 -0.05,-0.14 -0.07,-0.22 -0.02,0.08 -0.05,0.15 -0.07,0.22 -0.02,0.07 -0.04,0.13 -0.07,0.19l-1.4 3.46z"/>
   <path id="1" class="fil6" d="M25.16 189.1c-0.03,0.06 -0.07,0.08 -0.13,0.08 -0.04,0 -0.09,-0.03 -0.16,-0.09 -0.07,-0.06 -0.16,-0.13 -0.27,-0.2 -0.11,-0.07 -0.25,-0.14 -0.42,-0.2 -0.17,-0.06 -0.38,-0.09 -0.63,-0.09 -0.25,0 -0.47,0.04 -0.66,0.11 -0.19,0.07 -0.35,0.17 -0.48,0.29 -0.13,0.12 -0.22,0.27 -0.29,0.43 -0.07,0.16 -0.1,0.33 -0.1,0.51 0,0.23 0.05,0.42 0.15,0.58 0.1,0.15 0.23,0.28 0.39,0.39 0.16,0.11 0.35,0.2 0.55,0.27 0.21,0.07 0.42,0.15 0.63,0.22 0.22,0.07 0.43,0.15 0.63,0.23 0.2,0.09 0.39,0.19 0.55,0.32 0.16,0.13 0.29,0.29 0.39,0.48 0.1,0.19 0.15,0.43 0.15,0.71 0,0.29 -0.05,0.56 -0.15,0.81 -0.1,0.25 -0.24,0.47 -0.43,0.66 -0.19,0.19 -0.41,0.33 -0.69,0.44 -0.27,0.11 -0.58,0.16 -0.93,0.16 -0.45,0 -0.84,-0.08 -1.17,-0.24 -0.33,-0.16 -0.61,-0.38 -0.86,-0.66l0.14 -0.21c0.04,-0.05 0.08,-0.07 0.13,-0.07 0.03,0 0.07,0.02 0.11,0.06 0.05,0.04 0.1,0.08 0.16,0.14 0.06,0.06 0.14,0.12 0.23,0.18 0.09,0.07 0.19,0.13 0.31,0.18 0.12,0.06 0.26,0.11 0.41,0.14 0.15,0.04 0.33,0.06 0.53,0.06 0.27,0 0.51,-0.04 0.73,-0.12 0.21,-0.08 0.39,-0.19 0.54,-0.34 0.15,-0.14 0.26,-0.31 0.34,-0.51 0.08,-0.2 0.12,-0.4 0.12,-0.63 0,-0.24 -0.05,-0.44 -0.15,-0.6 -0.1,-0.16 -0.23,-0.29 -0.39,-0.39 -0.16,-0.11 -0.34,-0.19 -0.55,-0.26 -0.2,-0.07 -0.42,-0.14 -0.63,-0.21 -0.22,-0.07 -0.43,-0.14 -0.63,-0.23 -0.21,-0.08 -0.39,-0.19 -0.55,-0.32 -0.16,-0.13 -0.29,-0.29 -0.39,-0.49 -0.1,-0.2 -0.15,-0.44 -0.15,-0.73 0,-0.23 0.04,-0.45 0.13,-0.66 0.09,-0.21 0.22,-0.4 0.38,-0.57 0.17,-0.16 0.38,-0.29 0.62,-0.39 0.25,-0.1 0.53,-0.15 0.84,-0.15 0.36,0 0.68,0.06 0.96,0.17 0.28,0.11 0.54,0.29 0.77,0.52l-0.12 0.22z"/>
   <path id="2" class="fil6" d="M30.23 189.1c-0.03,0.06 -0.07,0.08 -0.13,0.08 -0.04,0 -0.09,-0.03 -0.16,-0.09 -0.07,-0.06 -0.16,-0.13 -0.27,-0.2 -0.11,-0.07 -0.25,-0.14 -0.42,-0.2 -0.17,-0.06 -0.38,-0.09 -0.63,-0.09 -0.25,0 -0.47,0.04 -0.66,0.11 -0.19,0.07 -0.35,0.17 -0.48,0.29 -0.13,0.12 -0.22,0.27 -0.29,0.43 -0.07,0.16 -0.1,0.33 -0.1,0.51 0,0.23 0.05,0.42 0.15,0.58 0.1,0.15 0.23,0.28 0.39,0.39 0.16,0.11 0.35,0.2 0.55,0.27 0.21,0.07 0.42,0.15 0.63,0.22 0.22,0.07 0.43,0.15 0.63,0.23 0.2,0.09 0.39,0.19 0.55,0.32 0.16,0.13 0.29,0.29 0.39,0.48 0.1,0.19 0.15,0.43 0.15,0.71 0,0.29 -0.05,0.56 -0.15,0.81 -0.1,0.25 -0.24,0.47 -0.43,0.66 -0.19,0.19 -0.41,0.33 -0.69,0.44 -0.27,0.11 -0.58,0.16 -0.93,0.16 -0.45,0 -0.84,-0.08 -1.17,-0.24 -0.33,-0.16 -0.61,-0.38 -0.86,-0.66l0.14 -0.21c0.04,-0.05 0.08,-0.07 0.13,-0.07 0.03,0 0.07,0.02 0.11,0.06 0.05,0.04 0.1,0.08 0.16,0.14 0.06,0.06 0.14,0.12 0.23,0.18 0.09,0.07 0.19,0.13 0.31,0.18 0.12,0.06 0.26,0.11 0.41,0.14 0.15,0.04 0.33,0.06 0.53,0.06 0.27,0 0.51,-0.04 0.73,-0.12 0.21,-0.08 0.39,-0.19 0.54,-0.34 0.15,-0.14 0.26,-0.31 0.34,-0.51 0.08,-0.2 0.12,-0.4 0.12,-0.63 0,-0.24 -0.05,-0.44 -0.15,-0.6 -0.1,-0.16 -0.23,-0.29 -0.39,-0.39 -0.16,-0.11 -0.34,-0.19 -0.55,-0.26 -0.2,-0.07 -0.42,-0.14 -0.63,-0.21 -0.22,-0.07 -0.43,-0.14 -0.63,-0.23 -0.21,-0.08 -0.39,-0.19 -0.55,-0.32 -0.16,-0.13 -0.29,-0.29 -0.39,-0.49 -0.1,-0.2 -0.15,-0.44 -0.15,-0.73 0,-0.23 0.04,-0.45 0.13,-0.66 0.09,-0.21 0.22,-0.4 0.38,-0.57 0.17,-0.16 0.38,-0.29 0.62,-0.39 0.25,-0.1 0.53,-0.15 0.84,-0.15 0.36,0 0.68,0.06 0.96,0.17 0.28,0.11 0.54,0.29 0.77,0.52l-0.12 0.22z"/>
   <path id="3" class="fil6" d="M38.09 191.69c0,0.53 -0.08,1.01 -0.24,1.44 -0.16,0.43 -0.38,0.8 -0.67,1.11 -0.29,0.31 -0.63,0.54 -1.03,0.71 -0.4,0.17 -0.85,0.25 -1.33,0.25 -0.48,0 -0.92,-0.08 -1.32,-0.25 -0.4,-0.17 -0.75,-0.4 -1.03,-0.71 -0.29,-0.31 -0.51,-0.67 -0.67,-1.11 -0.16,-0.43 -0.24,-0.91 -0.24,-1.44 0,-0.53 0.08,-1.01 0.24,-1.44 0.16,-0.43 0.38,-0.8 0.67,-1.11 0.29,-0.31 0.63,-0.54 1.03,-0.71 0.4,-0.17 0.84,-0.25 1.32,-0.25 0.49,0 0.93,0.08 1.33,0.25 0.4,0.17 0.74,0.4 1.03,0.71 0.29,0.31 0.51,0.68 0.67,1.11 0.16,0.43 0.24,0.91 0.24,1.44zm-0.51 -0c0,-0.48 -0.07,-0.91 -0.2,-1.29 -0.13,-0.38 -0.32,-0.71 -0.56,-0.97 -0.24,-0.27 -0.53,-0.47 -0.87,-0.61 -0.34,-0.14 -0.71,-0.21 -1.13,-0.21 -0.41,0 -0.78,0.07 -1.11,0.21 -0.34,0.14 -0.63,0.34 -0.87,0.61 -0.24,0.26 -0.43,0.59 -0.57,0.97 -0.13,0.38 -0.2,0.81 -0.2,1.29 0,0.48 0.07,0.91 0.2,1.29 0.13,0.38 0.32,0.7 0.57,0.97 0.24,0.27 0.53,0.47 0.87,0.61 0.34,0.14 0.71,0.21 1.11,0.21 0.41,0 0.79,-0.07 1.13,-0.21 0.34,-0.14 0.63,-0.34 0.87,-0.61 0.24,-0.27 0.43,-0.59 0.56,-0.97 0.13,-0.38 0.2,-0.81 0.2,-1.29z"/>
   <path id="4" class="fil6" d="M44.69 193.97c0.03,0 0.06,0.01 0.08,0.04l0.19 0.21c-0.14,0.15 -0.3,0.29 -0.47,0.41 -0.17,0.12 -0.35,0.22 -0.55,0.31 -0.2,0.09 -0.42,0.15 -0.65,0.2 -0.24,0.05 -0.5,0.07 -0.78,0.07 -0.48,0 -0.91,-0.08 -1.31,-0.25 -0.4,-0.17 -0.74,-0.4 -1.02,-0.71 -0.28,-0.31 -0.5,-0.67 -0.66,-1.11 -0.16,-0.43 -0.24,-0.91 -0.24,-1.45 0,-0.52 0.08,-0.99 0.25,-1.42 0.16,-0.43 0.39,-0.8 0.69,-1.11 0.3,-0.31 0.65,-0.55 1.06,-0.72 0.41,-0.17 0.87,-0.25 1.36,-0.25 0.25,0 0.48,0.02 0.68,0.05 0.21,0.04 0.4,0.09 0.58,0.16 0.18,0.07 0.35,0.16 0.5,0.26 0.16,0.1 0.31,0.22 0.47,0.36l-0.15 0.22c-0.03,0.04 -0.07,0.06 -0.12,0.06 -0.03,0 -0.07,-0.02 -0.11,-0.05 -0.04,-0.03 -0.1,-0.08 -0.17,-0.13 -0.07,-0.05 -0.15,-0.11 -0.25,-0.17 -0.1,-0.06 -0.22,-0.11 -0.35,-0.16 -0.13,-0.05 -0.29,-0.09 -0.47,-0.13 -0.18,-0.03 -0.38,-0.05 -0.61,-0.05 -0.42,0 -0.8,0.07 -1.15,0.22 -0.35,0.14 -0.65,0.35 -0.9,0.62 -0.25,0.27 -0.45,0.59 -0.59,0.97 -0.14,0.38 -0.21,0.81 -0.21,1.28 0,0.49 0.07,0.92 0.21,1.3 0.14,0.38 0.33,0.7 0.58,0.97 0.25,0.26 0.54,0.46 0.87,0.61 0.33,0.14 0.7,0.21 1.09,0.21 0.25,0 0.47,-0.02 0.66,-0.05 0.19,-0.03 0.37,-0.08 0.53,-0.15 0.16,-0.06 0.31,-0.14 0.45,-0.24 0.14,-0.09 0.28,-0.2 0.41,-0.33 0.02,-0.01 0.03,-0.02 0.05,-0.03 0.01,-0.01 0.03,-0.01 0.05,-0.01z"/>
   <polygon id="5" class="fil6" points="47.2,195.12 46.7,195.12 46.7,188.26 47.2,188.26 "/>
   <path id="6" class="fil6" d="M54.58 195.12l-0.38 0c-0.05,0 -0.08,-0.01 -0.11,-0.04 -0.03,-0.02 -0.05,-0.05 -0.07,-0.09l-0.81 -1.99 -3.37 0 -0.8 1.99c-0.01,0.04 -0.04,0.07 -0.07,0.09 -0.03,0.03 -0.07,0.04 -0.12,0.04l-0.38 0 2.81 -6.86 0.49 0 2.81 6.86zm-4.59 -2.48l3.07 0 -1.4 -3.47c-0.02,-0.05 -0.04,-0.12 -0.07,-0.19 -0.02,-0.07 -0.05,-0.14 -0.07,-0.22 -0.02,0.08 -0.05,0.15 -0.07,0.22 -0.02,0.07 -0.04,0.13 -0.07,0.19l-1.4 3.46z"/>
   <path id="7" class="fil6" d="M57.68 196.44c0.02,0 0.04,0.01 0.07,0.03 0.03,0.02 0.06,0.04 0.11,0.06 0.04,0.02 0.1,0.04 0.16,0.06 0.06,0.02 0.14,0.03 0.24,0.03 0.16,0 0.29,-0.04 0.39,-0.11 0.09,-0.07 0.14,-0.17 0.14,-0.29 0,-0.08 -0.02,-0.15 -0.06,-0.2 -0.04,-0.05 -0.1,-0.1 -0.18,-0.13 -0.08,-0.04 -0.17,-0.06 -0.27,-0.08 -0.11,-0.02 -0.22,-0.04 -0.35,-0.05l0.18 -0.56c-0.44,-0.03 -0.85,-0.13 -1.21,-0.3 -0.37,-0.18 -0.68,-0.42 -0.94,-0.72 -0.26,-0.3 -0.47,-0.67 -0.61,-1.08 -0.15,-0.42 -0.22,-0.88 -0.22,-1.39 0,-0.52 0.08,-0.99 0.25,-1.42 0.16,-0.43 0.39,-0.8 0.69,-1.11 0.3,-0.31 0.65,-0.55 1.06,-0.72 0.41,-0.17 0.87,-0.25 1.36,-0.25 0.25,0 0.48,0.02 0.68,0.05 0.21,0.04 0.4,0.09 0.58,0.16 0.18,0.07 0.35,0.16 0.5,0.26 0.16,0.1 0.31,0.22 0.47,0.36l-0.15 0.22c-0.03,0.04 -0.07,0.06 -0.12,0.06 -0.03,0 -0.07,-0.02 -0.11,-0.05 -0.04,-0.03 -0.1,-0.08 -0.17,-0.13 -0.07,-0.05 -0.15,-0.11 -0.25,-0.17 -0.1,-0.06 -0.22,-0.11 -0.35,-0.16 -0.13,-0.05 -0.29,-0.09 -0.47,-0.13 -0.18,-0.03 -0.38,-0.05 -0.61,-0.05 -0.42,0 -0.8,0.07 -1.15,0.22 -0.35,0.14 -0.65,0.35 -0.9,0.62 -0.25,0.27 -0.45,0.59 -0.59,0.97 -0.14,0.38 -0.21,0.81 -0.21,1.28 0,0.49 0.07,0.92 0.21,1.3 0.14,0.38 0.33,0.7 0.58,0.97 0.25,0.26 0.54,0.46 0.87,0.61 0.33,0.14 0.7,0.21 1.09,0.21 0.25,0 0.47,-0.02 0.66,-0.05 0.19,-0.03 0.37,-0.08 0.53,-0.15 0.16,-0.06 0.31,-0.14 0.45,-0.24 0.14,-0.09 0.28,-0.2 0.41,-0.33 0.02,-0.01 0.03,-0.02 0.05,-0.03 0.01,-0.01 0.03,-0.01 0.05,-0.01 0.03,0 0.06,0.01 0.08,0.04l0.19 0.21c-0.14,0.15 -0.29,0.28 -0.46,0.4 -0.16,0.12 -0.34,0.22 -0.54,0.31 -0.2,0.09 -0.41,0.15 -0.64,0.2 -0.23,0.05 -0.49,0.07 -0.76,0.08l-0.11 0.36c0.29,0.05 0.51,0.13 0.66,0.22 0.15,0.1 0.22,0.24 0.22,0.43 0,0.1 -0.02,0.18 -0.07,0.26 -0.04,0.08 -0.11,0.14 -0.19,0.2 -0.08,0.05 -0.17,0.09 -0.28,0.12 -0.11,0.03 -0.23,0.04 -0.36,0.04 -0.13,0 -0.26,-0.02 -0.39,-0.06 -0.13,-0.04 -0.23,-0.09 -0.32,-0.15l0.05 -0.14c0.02,-0.04 0.04,-0.06 0.08,-0.06z"/>
   <path id="8" class="fil6" d="M67.5 195.12l-0.38 0c-0.05,0 -0.08,-0.01 -0.11,-0.04 -0.03,-0.02 -0.05,-0.05 -0.07,-0.09l-0.81 -1.99 -3.37 0 -0.8 1.99c-0.01,0.04 -0.04,0.07 -0.07,0.09 -0.03,0.03 -0.07,0.04 -0.12,0.04l-0.38 0 2.81 -6.86 0.49 0 2.81 6.86zm-4.59 -2.48l3.07 0 -1.4 -3.47c-0.02,-0.05 -0.04,-0.12 -0.07,-0.19 -0.02,-0.07 -0.05,-0.14 -0.07,-0.22 -0.02,0.08 -0.05,0.15 -0.07,0.22 -0.02,0.07 -0.04,0.13 -0.07,0.19l-1.4 3.46zm2.12 -5.35c0.14,0 0.24,-0.05 0.31,-0.13 0.07,-0.09 0.11,-0.2 0.11,-0.34l0.26 0c0,0.11 -0.01,0.22 -0.04,0.32 -0.03,0.1 -0.07,0.18 -0.13,0.25 -0.06,0.07 -0.13,0.13 -0.21,0.17 -0.09,0.04 -0.18,0.06 -0.29,0.06 -0.11,0 -0.21,-0.03 -0.31,-0.08 -0.1,-0.05 -0.19,-0.11 -0.28,-0.17 -0.09,-0.06 -0.18,-0.12 -0.26,-0.17 -0.08,-0.05 -0.17,-0.08 -0.26,-0.08 -0.14,0 -0.24,0.04 -0.31,0.14 -0.07,0.09 -0.11,0.2 -0.11,0.34l-0.27 0c0,-0.11 0.02,-0.22 0.05,-0.31 0.03,-0.1 0.07,-0.18 0.13,-0.26 0.06,-0.07 0.13,-0.13 0.21,-0.17 0.08,-0.04 0.18,-0.06 0.29,-0.06 0.11,0 0.21,0.03 0.31,0.08 0.1,0.05 0.19,0.11 0.28,0.17 0.09,0.06 0.18,0.12 0.26,0.17 0.08,0.05 0.17,0.08 0.26,0.08z"/>
   <path id="9" class="fil6" d="M74.56 191.69c0,0.53 -0.08,1.01 -0.24,1.44 -0.16,0.43 -0.38,0.8 -0.67,1.11 -0.29,0.31 -0.63,0.54 -1.03,0.71 -0.4,0.17 -0.85,0.25 -1.33,0.25 -0.48,0 -0.92,-0.08 -1.32,-0.25 -0.4,-0.17 -0.75,-0.4 -1.03,-0.71 -0.29,-0.31 -0.51,-0.67 -0.67,-1.11 -0.16,-0.43 -0.24,-0.91 -0.24,-1.44 0,-0.53 0.08,-1.01 0.24,-1.44 0.16,-0.43 0.38,-0.8 0.67,-1.11 0.29,-0.31 0.63,-0.54 1.03,-0.71 0.4,-0.17 0.84,-0.25 1.32,-0.25 0.49,0 0.93,0.08 1.33,0.25 0.4,0.17 0.74,0.4 1.03,0.71 0.29,0.31 0.51,0.68 0.67,1.11 0.16,0.43 0.24,0.91 0.24,1.44zm-0.51 -0c0,-0.48 -0.07,-0.91 -0.2,-1.29 -0.13,-0.38 -0.32,-0.71 -0.56,-0.97 -0.24,-0.27 -0.53,-0.47 -0.87,-0.61 -0.34,-0.14 -0.71,-0.21 -1.13,-0.21 -0.41,0 -0.78,0.07 -1.11,0.21 -0.34,0.14 -0.63,0.34 -0.87,0.61 -0.24,0.26 -0.43,0.59 -0.57,0.97 -0.13,0.38 -0.2,0.81 -0.2,1.29 0,0.48 0.07,0.91 0.2,1.29 0.13,0.38 0.32,0.7 0.57,0.97 0.24,0.27 0.53,0.47 0.87,0.61 0.34,0.14 0.71,0.21 1.11,0.21 0.41,0 0.79,-0.07 1.13,-0.21 0.34,-0.14 0.63,-0.34 0.87,-0.61 0.24,-0.27 0.43,-0.59 0.56,-0.97 0.13,-0.38 0.2,-0.81 0.2,-1.29z"/>
   <path id="10" class="fil6" d="M83.03 193.97c0.03,0 0.06,0.01 0.08,0.04l0.19 0.21c-0.14,0.15 -0.3,0.29 -0.47,0.41 -0.17,0.12 -0.35,0.22 -0.55,0.31 -0.2,0.09 -0.42,0.15 -0.65,0.2 -0.24,0.05 -0.5,0.07 -0.78,0.07 -0.48,0 -0.91,-0.08 -1.31,-0.25 -0.4,-0.17 -0.74,-0.4 -1.02,-0.71 -0.28,-0.31 -0.5,-0.67 -0.66,-1.11 -0.16,-0.43 -0.24,-0.91 -0.24,-1.45 0,-0.52 0.08,-0.99 0.25,-1.42 0.16,-0.43 0.39,-0.8 0.69,-1.11 0.3,-0.31 0.65,-0.55 1.06,-0.72 0.41,-0.17 0.87,-0.25 1.36,-0.25 0.25,0 0.48,0.02 0.68,0.05 0.21,0.04 0.4,0.09 0.58,0.16 0.18,0.07 0.35,0.16 0.5,0.26 0.16,0.1 0.31,0.22 0.47,0.36l-0.15 0.22c-0.03,0.04 -0.07,0.06 -0.12,0.06 -0.03,0 -0.07,-0.02 -0.11,-0.05 -0.04,-0.03 -0.1,-0.08 -0.17,-0.13 -0.07,-0.05 -0.15,-0.11 -0.25,-0.17 -0.1,-0.06 -0.22,-0.11 -0.35,-0.16 -0.13,-0.05 -0.29,-0.09 -0.47,-0.13 -0.18,-0.03 -0.38,-0.05 -0.61,-0.05 -0.42,0 -0.8,0.07 -1.15,0.22 -0.35,0.14 -0.65,0.35 -0.9,0.62 -0.25,0.27 -0.45,0.59 -0.59,0.97 -0.14,0.38 -0.21,0.81 -0.21,1.28 0,0.49 0.07,0.92 0.21,1.3 0.14,0.38 0.33,0.7 0.58,0.97 0.25,0.26 0.54,0.46 0.87,0.61 0.33,0.14 0.7,0.21 1.09,0.21 0.25,0 0.47,-0.02 0.66,-0.05 0.19,-0.03 0.37,-0.08 0.53,-0.15 0.16,-0.06 0.31,-0.14 0.45,-0.24 0.14,-0.09 0.28,-0.2 0.41,-0.33 0.02,-0.01 0.03,-0.02 0.05,-0.03 0.01,-0.01 0.03,-0.01 0.05,-0.01z"/>
   <path id="11" class="fil6" d="M90.02 195.12l-0.38 0c-0.05,0 -0.08,-0.01 -0.11,-0.04 -0.03,-0.02 -0.05,-0.05 -0.07,-0.09l-0.81 -1.99 -3.37 0 -0.8 1.99c-0.01,0.04 -0.04,0.07 -0.07,0.09 -0.03,0.03 -0.07,0.04 -0.12,0.04l-0.38 0 2.81 -6.86 0.49 0 2.81 6.86zm-4.59 -2.48l3.07 0 -1.4 -3.47c-0.02,-0.05 -0.04,-0.12 -0.07,-0.19 -0.02,-0.07 -0.05,-0.14 -0.07,-0.22 -0.02,0.08 -0.05,0.15 -0.07,0.22 -0.02,0.07 -0.04,0.13 -0.07,0.19l-1.4 3.46z"/>
   <path id="12" class="fil6" d="M91.74 192.36l0 2.76 -0.49 0 0 -6.86 1.77 0c0.81,0 1.41,0.18 1.82,0.53 0.41,0.35 0.61,0.86 0.61,1.51 0,0.3 -0.06,0.58 -0.17,0.83 -0.11,0.25 -0.27,0.47 -0.48,0.65 -0.21,0.18 -0.47,0.32 -0.77,0.43 -0.3,0.1 -0.64,0.15 -1.02,0.15l-1.28 0zm0 -0.4l1.28 0c0.3,0 0.58,-0.04 0.82,-0.13 0.24,-0.08 0.44,-0.2 0.61,-0.35 0.17,-0.15 0.29,-0.32 0.38,-0.53 0.09,-0.2 0.13,-0.42 0.13,-0.66 0,-0.53 -0.16,-0.93 -0.49,-1.22 -0.32,-0.28 -0.81,-0.43 -1.45,-0.43l-1.28 0 0 3.31z"/>
   <polygon id="13" class="fil6" points="97.54,195.12 97.03,195.12 97.03,188.26 97.54,188.26 "/>
   <path id="14" class="fil6" d="M101.3 191.6l-2.37 -3.34 0.49 0c0.04,0 0.08,0.01 0.1,0.03 0.02,0.02 0.04,0.04 0.06,0.07l2.08 3c0.01,-0.03 0.02,-0.05 0.03,-0.08 0.01,-0.02 0.02,-0.05 0.04,-0.07l2.01 -2.85c0.02,-0.03 0.04,-0.05 0.06,-0.07 0.02,-0.02 0.05,-0.03 0.08,-0.03l0.48 0 -2.37 3.32 2.47 3.55 -0.49 0c-0.04,0 -0.08,-0.01 -0.11,-0.04 -0.03,-0.03 -0.05,-0.05 -0.06,-0.08l-2.16 -3.16c-0.01,0.05 -0.04,0.1 -0.07,0.14l-2.12 3.02c-0.02,0.03 -0.05,0.06 -0.08,0.08 -0.03,0.03 -0.06,0.04 -0.1,0.04l-0.45 0 2.48 -3.52z"/>
   <path id="15" class="fil6" d="M110.73 195.12l-0.38 0c-0.05,0 -0.08,-0.01 -0.11,-0.04 -0.03,-0.02 -0.05,-0.05 -0.07,-0.09l-0.81 -1.99 -3.37 0 -0.8 1.99c-0.01,0.04 -0.04,0.07 -0.07,0.09 -0.03,0.03 -0.07,0.04 -0.12,0.04l-0.38 0 2.81 -6.86 0.49 0 2.81 6.86zm-4.59 -2.48l3.07 0 -1.4 -3.47c-0.02,-0.05 -0.04,-0.12 -0.07,-0.19 -0.02,-0.07 -0.05,-0.14 -0.07,-0.22 -0.02,0.08 -0.05,0.15 -0.07,0.22 -0.02,0.07 -0.04,0.13 -0.07,0.19l-1.4 3.46z"/>
   <path id="16" class="fil6" d="M111.81 195.12l0 -6.86 1.97 0c0.39,0 0.73,0.04 1.02,0.12 0.29,0.08 0.52,0.19 0.71,0.34 0.19,0.15 0.33,0.33 0.42,0.55 0.09,0.22 0.14,0.46 0.14,0.74 0,0.18 -0.03,0.36 -0.09,0.52 -0.06,0.17 -0.16,0.32 -0.27,0.46 -0.12,0.14 -0.27,0.27 -0.44,0.37 -0.17,0.11 -0.37,0.18 -0.6,0.24 0.54,0.08 0.95,0.26 1.25,0.54 0.29,0.28 0.44,0.64 0.44,1.1 0,0.29 -0.05,0.55 -0.15,0.79 -0.1,0.23 -0.25,0.43 -0.45,0.59 -0.2,0.16 -0.44,0.28 -0.73,0.37 -0.29,0.09 -0.61,0.13 -0.98,0.13l-2.22 0zm0.49 -3.28l0 2.89 1.72 0c0.6,0 1.06,-0.13 1.37,-0.39 0.31,-0.26 0.46,-0.62 0.46,-1.1 0,-0.22 -0.04,-0.41 -0.12,-0.59 -0.08,-0.17 -0.2,-0.32 -0.36,-0.44 -0.16,-0.12 -0.35,-0.21 -0.57,-0.28 -0.23,-0.06 -0.48,-0.1 -0.77,-0.1l-1.72 0zm0 -0.36l1.49 0c0.32,0 0.59,-0.04 0.81,-0.12 0.22,-0.08 0.41,-0.19 0.55,-0.32 0.14,-0.13 0.25,-0.29 0.32,-0.45 0.07,-0.17 0.1,-0.34 0.1,-0.52 0,-0.46 -0.15,-0.81 -0.44,-1.05 -0.29,-0.24 -0.74,-0.36 -1.35,-0.36l-1.48 0 0 2.82z"/>
   <path id="17" class="fil6" d="M123.19 195.12l-0.38 0c-0.05,0 -0.08,-0.01 -0.11,-0.04 -0.03,-0.02 -0.05,-0.05 -0.07,-0.09l-0.81 -1.99 -3.37 0 -0.8 1.99c-0.01,0.04 -0.04,0.07 -0.07,0.09 -0.03,0.03 -0.07,0.04 -0.12,0.04l-0.38 0 2.81 -6.86 0.49 0 2.81 6.86zm-4.59 -2.48l3.07 0 -1.4 -3.47c-0.02,-0.05 -0.04,-0.12 -0.07,-0.19 -0.02,-0.07 -0.05,-0.14 -0.07,-0.22 -0.02,0.08 -0.05,0.15 -0.07,0.22 -0.02,0.07 -0.04,0.13 -0.07,0.19l-1.4 3.46z"/>
   <path id="18" class="fil6" d="M131.91 191.69c0,0.53 -0.08,1.01 -0.24,1.43 -0.16,0.42 -0.38,0.78 -0.67,1.08 -0.29,0.3 -0.63,0.53 -1.03,0.68 -0.4,0.16 -0.85,0.24 -1.33,0.24l-2.5 0 0 -6.86 2.5 0c0.49,0 0.93,0.08 1.33,0.24 0.4,0.16 0.74,0.39 1.03,0.68 0.29,0.3 0.51,0.66 0.67,1.08 0.16,0.42 0.24,0.9 0.24,1.42zm-0.51 0c0,-0.48 -0.07,-0.9 -0.2,-1.28 -0.13,-0.37 -0.32,-0.69 -0.56,-0.95 -0.24,-0.26 -0.53,-0.46 -0.87,-0.59 -0.34,-0.14 -0.71,-0.2 -1.13,-0.2l-2 0 0 6.05 2 0c0.41,0 0.79,-0.07 1.13,-0.2 0.34,-0.13 0.63,-0.33 0.87,-0.59 0.24,-0.26 0.43,-0.57 0.56,-0.95 0.13,-0.37 0.2,-0.8 0.2,-1.28z"/>
   <path id="19" class="fil6" d="M138.52 195.12l-0.38 0c-0.05,0 -0.08,-0.01 -0.11,-0.04 -0.03,-0.02 -0.05,-0.05 -0.07,-0.09l-0.81 -1.99 -3.37 0 -0.8 1.99c-0.01,0.04 -0.04,0.07 -0.07,0.09 -0.03,0.03 -0.07,0.04 -0.12,0.04l-0.38 0 2.81 -6.86 0.49 0 2.81 6.86zm-4.59 -2.48l3.07 0 -1.4 -3.47c-0.02,-0.05 -0.04,-0.12 -0.07,-0.19 -0.02,-0.07 -0.05,-0.14 -0.07,-0.22 -0.02,0.08 -0.05,0.15 -0.07,0.22 -0.02,0.07 -0.04,0.13 -0.07,0.19l-1.4 3.46z"/>
   <path id="20" class="fil6" d="M142.92 189.1c-0.03,0.06 -0.07,0.08 -0.13,0.08 -0.04,0 -0.09,-0.03 -0.16,-0.09 -0.07,-0.06 -0.16,-0.13 -0.27,-0.2 -0.11,-0.07 -0.25,-0.14 -0.42,-0.2 -0.17,-0.06 -0.38,-0.09 -0.63,-0.09 -0.25,0 -0.47,0.04 -0.66,0.11 -0.19,0.07 -0.35,0.17 -0.48,0.29 -0.13,0.12 -0.22,0.27 -0.29,0.43 -0.07,0.16 -0.1,0.33 -0.1,0.51 0,0.23 0.05,0.42 0.15,0.58 0.1,0.15 0.23,0.28 0.39,0.39 0.16,0.11 0.35,0.2 0.55,0.27 0.21,0.07 0.42,0.15 0.63,0.22 0.22,0.07 0.43,0.15 0.63,0.23 0.2,0.09 0.39,0.19 0.55,0.32 0.16,0.13 0.29,0.29 0.39,0.48 0.1,0.19 0.15,0.43 0.15,0.71 0,0.29 -0.05,0.56 -0.15,0.81 -0.1,0.25 -0.24,0.47 -0.43,0.66 -0.19,0.19 -0.41,0.33 -0.69,0.44 -0.27,0.11 -0.58,0.16 -0.93,0.16 -0.45,0 -0.84,-0.08 -1.17,-0.24 -0.33,-0.16 -0.61,-0.38 -0.86,-0.66l0.14 -0.21c0.04,-0.05 0.08,-0.07 0.13,-0.07 0.03,0 0.07,0.02 0.11,0.06 0.05,0.04 0.1,0.08 0.16,0.14 0.06,0.06 0.14,0.12 0.23,0.18 0.09,0.07 0.19,0.13 0.31,0.18 0.12,0.06 0.26,0.11 0.41,0.14 0.15,0.04 0.33,0.06 0.53,0.06 0.27,0 0.51,-0.04 0.73,-0.12 0.21,-0.08 0.39,-0.19 0.54,-0.34 0.15,-0.14 0.26,-0.31 0.34,-0.51 0.08,-0.2 0.12,-0.4 0.12,-0.63 0,-0.24 -0.05,-0.44 -0.15,-0.6 -0.1,-0.16 -0.23,-0.29 -0.39,-0.39 -0.16,-0.11 -0.34,-0.19 -0.55,-0.26 -0.2,-0.07 -0.42,-0.14 -0.63,-0.21 -0.22,-0.07 -0.43,-0.14 -0.63,-0.23 -0.21,-0.08 -0.39,-0.19 -0.55,-0.32 -0.16,-0.13 -0.29,-0.29 -0.39,-0.49 -0.1,-0.2 -0.15,-0.44 -0.15,-0.73 0,-0.23 0.04,-0.45 0.13,-0.66 0.09,-0.21 0.22,-0.4 0.38,-0.57 0.17,-0.16 0.38,-0.29 0.62,-0.39 0.25,-0.1 0.53,-0.15 0.84,-0.15 0.36,0 0.68,0.06 0.96,0.17 0.28,0.11 0.54,0.29 0.77,0.52l-0.12 0.22z"/>
   <polygon id="21" class="fil6" points="30.44,199.89 30.44,200.3 26.83,200.3 26.83,203.08 29.83,203.08 29.83,203.48 26.83,203.48 26.83,206.33 30.44,206.33 30.44,206.75 26.32,206.75 26.32,199.89 "/>
   <path id="22" class="fil6" d="M35.35 204.75c0.05,0.09 0.09,0.19 0.13,0.29 0.02,-0.05 0.04,-0.1 0.06,-0.15 0.02,-0.05 0.04,-0.1 0.07,-0.14l2.7 -4.76c0.03,-0.04 0.05,-0.07 0.08,-0.08 0.03,-0.01 0.06,-0.01 0.11,-0.01l0.34 0 0 6.86 -0.44 0 0 -5.84c0,-0.08 0.01,-0.17 0.02,-0.27l-2.7 4.79c-0.05,0.08 -0.11,0.13 -0.19,0.13l-0.08 0c-0.08,0 -0.15,-0.04 -0.19,-0.13l-2.77 -4.8c0.01,0.09 0.01,0.18 0.01,0.27l0 5.84 -0.44 0 0 -6.86 0.34 0c0.04,0 0.08,0.01 0.11,0.01 0.03,0.01 0.05,0.04 0.08,0.08l2.77 4.77z"/>
   <path id="23" class="fil6" d="M41.5 203.99l0 2.76 -0.49 0 0 -6.86 1.77 0c0.81,0 1.41,0.18 1.82,0.53 0.41,0.35 0.61,0.86 0.61,1.51 0,0.3 -0.06,0.58 -0.17,0.83 -0.11,0.25 -0.27,0.47 -0.48,0.65 -0.21,0.18 -0.47,0.32 -0.77,0.43 -0.3,0.1 -0.64,0.15 -1.02,0.15l-1.28 0zm0 -0.4l1.28 0c0.3,0 0.58,-0.04 0.82,-0.13 0.24,-0.08 0.44,-0.2 0.61,-0.35 0.17,-0.15 0.29,-0.32 0.38,-0.53 0.09,-0.2 0.13,-0.42 0.13,-0.66 0,-0.53 -0.16,-0.93 -0.49,-1.22 -0.32,-0.28 -0.81,-0.43 -1.45,-0.43l-1.28 0 0 3.31z"/>
   <path id="24" class="fil6" d="M47.25 203.65l0 3.1 -0.49 0 0 -6.86 1.75 0c0.79,0 1.38,0.15 1.77,0.46 0.39,0.31 0.59,0.75 0.59,1.34 0,0.26 -0.04,0.5 -0.14,0.72 -0.09,0.22 -0.22,0.41 -0.39,0.57 -0.17,0.16 -0.37,0.3 -0.61,0.4 -0.24,0.11 -0.51,0.18 -0.81,0.21 0.08,0.05 0.15,0.11 0.21,0.19l2.37 2.97 -0.43 0c-0.05,0 -0.1,-0.01 -0.13,-0.03 -0.04,-0.02 -0.07,-0.05 -0.11,-0.1l-2.2 -2.78c-0.06,-0.07 -0.11,-0.12 -0.18,-0.15 -0.06,-0.03 -0.16,-0.04 -0.29,-0.04l-0.9 0zm0 -0.36l1.19 0c0.3,0 0.58,-0.04 0.82,-0.11 0.24,-0.07 0.44,-0.18 0.61,-0.31 0.17,-0.14 0.29,-0.3 0.38,-0.49 0.09,-0.19 0.13,-0.41 0.13,-0.65 0,-0.49 -0.16,-0.85 -0.48,-1.09 -0.32,-0.24 -0.78,-0.36 -1.4,-0.36l-1.25 0 0 3z"/>
   <polygon id="25" class="fil6" points="56.85,199.89 56.85,200.3 53.23,200.3 53.23,203.08 56.24,203.08 56.24,203.48 53.23,203.48 53.23,206.33 56.85,206.33 56.85,206.75 52.73,206.75 52.73,199.89 "/>
   <path id="26" class="fil6" d="M61.77 200.73c-0.03,0.06 -0.07,0.08 -0.13,0.08 -0.04,0 -0.09,-0.03 -0.16,-0.09 -0.07,-0.06 -0.16,-0.13 -0.27,-0.2 -0.11,-0.07 -0.25,-0.14 -0.42,-0.2 -0.17,-0.06 -0.38,-0.09 -0.63,-0.09 -0.25,0 -0.47,0.04 -0.66,0.11 -0.19,0.07 -0.35,0.17 -0.48,0.29 -0.13,0.12 -0.22,0.27 -0.29,0.43 -0.07,0.16 -0.1,0.33 -0.1,0.51 0,0.23 0.05,0.42 0.15,0.58 0.1,0.15 0.23,0.28 0.39,0.39 0.16,0.11 0.35,0.2 0.55,0.27 0.21,0.07 0.42,0.15 0.63,0.22 0.22,0.07 0.43,0.15 0.63,0.23 0.2,0.09 0.39,0.19 0.55,0.32 0.16,0.13 0.29,0.29 0.39,0.48 0.1,0.19 0.15,0.43 0.15,0.71 0,0.29 -0.05,0.56 -0.15,0.81 -0.1,0.25 -0.24,0.47 -0.43,0.66 -0.19,0.19 -0.41,0.33 -0.69,0.44 -0.27,0.11 -0.58,0.16 -0.93,0.16 -0.45,0 -0.84,-0.08 -1.17,-0.24 -0.33,-0.16 -0.61,-0.38 -0.86,-0.66l0.14 -0.21c0.04,-0.05 0.08,-0.07 0.13,-0.07 0.03,0 0.07,0.02 0.11,0.06 0.05,0.04 0.1,0.08 0.16,0.14 0.06,0.06 0.14,0.12 0.23,0.18 0.09,0.07 0.19,0.13 0.31,0.18 0.12,0.06 0.26,0.11 0.41,0.14 0.15,0.04 0.33,0.06 0.53,0.06 0.27,0 0.51,-0.04 0.73,-0.12 0.21,-0.08 0.39,-0.19 0.54,-0.34 0.15,-0.14 0.26,-0.31 0.34,-0.51 0.08,-0.2 0.12,-0.4 0.12,-0.63 0,-0.24 -0.05,-0.44 -0.15,-0.6 -0.1,-0.16 -0.23,-0.29 -0.39,-0.39 -0.16,-0.11 -0.34,-0.19 -0.55,-0.26 -0.2,-0.07 -0.42,-0.14 -0.63,-0.21 -0.22,-0.07 -0.43,-0.14 -0.63,-0.23 -0.21,-0.08 -0.39,-0.19 -0.55,-0.32 -0.16,-0.13 -0.29,-0.29 -0.39,-0.49 -0.1,-0.2 -0.15,-0.44 -0.15,-0.73 0,-0.23 0.04,-0.45 0.13,-0.66 0.09,-0.21 0.22,-0.4 0.38,-0.57 0.17,-0.16 0.38,-0.29 0.62,-0.39 0.25,-0.1 0.53,-0.15 0.84,-0.15 0.36,0 0.68,0.06 0.96,0.17 0.28,0.11 0.54,0.29 0.77,0.52l-0.12 0.22z"/>
   <path id="27" class="fil6" d="M68.68 206.75l-0.38 0c-0.05,0 -0.08,-0.01 -0.11,-0.04 -0.03,-0.02 -0.05,-0.05 -0.07,-0.09l-0.81 -1.99 -3.37 0 -0.8 1.99c-0.01,0.04 -0.04,0.07 -0.07,0.09 -0.03,0.03 -0.07,0.04 -0.12,0.04l-0.38 0 2.81 -6.86 0.49 0 2.81 6.86zm-4.59 -2.48l3.07 0 -1.4 -3.47c-0.02,-0.05 -0.04,-0.12 -0.07,-0.19 -0.02,-0.07 -0.05,-0.14 -0.07,-0.22 -0.02,0.08 -0.05,0.15 -0.07,0.22 -0.02,0.07 -0.04,0.13 -0.07,0.19l-1.4 3.46z"/>
   <path id="28" class="fil6" d="M73.08 200.73c-0.03,0.06 -0.07,0.08 -0.13,0.08 -0.04,0 -0.09,-0.03 -0.16,-0.09 -0.07,-0.06 -0.16,-0.13 -0.27,-0.2 -0.11,-0.07 -0.25,-0.14 -0.42,-0.2 -0.17,-0.06 -0.38,-0.09 -0.63,-0.09 -0.25,0 -0.47,0.04 -0.66,0.11 -0.19,0.07 -0.35,0.17 -0.48,0.29 -0.13,0.12 -0.22,0.27 -0.29,0.43 -0.07,0.16 -0.1,0.33 -0.1,0.51 0,0.23 0.05,0.42 0.15,0.58 0.1,0.15 0.23,0.28 0.39,0.39 0.16,0.11 0.35,0.2 0.55,0.27 0.21,0.07 0.42,0.15 0.63,0.22 0.22,0.07 0.43,0.15 0.63,0.23 0.2,0.09 0.39,0.19 0.55,0.32 0.16,0.13 0.29,0.29 0.39,0.48 0.1,0.19 0.15,0.43 0.15,0.71 0,0.29 -0.05,0.56 -0.15,0.81 -0.1,0.25 -0.24,0.47 -0.43,0.66 -0.19,0.19 -0.41,0.33 -0.69,0.44 -0.27,0.11 -0.58,0.16 -0.93,0.16 -0.45,0 -0.84,-0.08 -1.17,-0.24 -0.33,-0.16 -0.61,-0.38 -0.86,-0.66l0.14 -0.21c0.04,-0.05 0.08,-0.07 0.13,-0.07 0.03,0 0.07,0.02 0.11,0.06 0.05,0.04 0.1,0.08 0.16,0.14 0.06,0.06 0.14,0.12 0.23,0.18 0.09,0.07 0.19,0.13 0.31,0.18 0.12,0.06 0.26,0.11 0.41,0.14 0.15,0.04 0.33,0.06 0.53,0.06 0.27,0 0.51,-0.04 0.73,-0.12 0.21,-0.08 0.39,-0.19 0.54,-0.34 0.15,-0.14 0.26,-0.31 0.34,-0.51 0.08,-0.2 0.12,-0.4 0.12,-0.63 0,-0.24 -0.05,-0.44 -0.15,-0.6 -0.1,-0.16 -0.23,-0.29 -0.39,-0.39 -0.16,-0.11 -0.34,-0.19 -0.55,-0.26 -0.2,-0.07 -0.42,-0.14 -0.63,-0.21 -0.22,-0.07 -0.43,-0.14 -0.63,-0.23 -0.21,-0.08 -0.39,-0.19 -0.55,-0.32 -0.16,-0.13 -0.29,-0.29 -0.39,-0.49 -0.1,-0.2 -0.15,-0.44 -0.15,-0.73 0,-0.23 0.04,-0.45 0.13,-0.66 0.09,-0.21 0.22,-0.4 0.38,-0.57 0.17,-0.16 0.38,-0.29 0.62,-0.39 0.25,-0.1 0.53,-0.15 0.84,-0.15 0.36,0 0.68,0.06 0.96,0.17 0.28,0.11 0.54,0.29 0.77,0.52l-0.12 0.22z"/>
   <path id="29" class="fil6" d="M82.47 203.32c0,0.53 -0.08,1.01 -0.24,1.43 -0.16,0.42 -0.38,0.78 -0.67,1.08 -0.29,0.3 -0.63,0.53 -1.03,0.68 -0.4,0.16 -0.85,0.24 -1.33,0.24l-2.5 0 0 -6.86 2.5 0c0.49,0 0.93,0.08 1.33,0.24 0.4,0.16 0.74,0.39 1.03,0.68 0.29,0.3 0.51,0.66 0.67,1.08 0.16,0.42 0.24,0.9 0.24,1.42zm-0.51 0c0,-0.48 -0.07,-0.9 -0.2,-1.28 -0.13,-0.37 -0.32,-0.69 -0.56,-0.95 -0.24,-0.26 -0.53,-0.46 -0.87,-0.59 -0.34,-0.14 -0.71,-0.2 -1.13,-0.2l-2 0 0 6.05 2 0c0.41,0 0.79,-0.07 1.13,-0.2 0.34,-0.13 0.63,-0.33 0.87,-0.59 0.24,-0.26 0.43,-0.57 0.56,-0.95 0.13,-0.37 0.2,-0.8 0.2,-1.28z"/>
   <polygon id="30" class="fil6" points="88.18,199.89 88.18,200.3 84.57,200.3 84.57,203.08 87.58,203.08 87.58,203.48 84.57,203.48 84.57,206.33 88.18,206.33 88.18,206.75 84.07,206.75 84.07,199.89 "/>
   <path id="31" class="fil6" d="M90.72 199.89l0.39 0c0.04,0 0.08,0.01 0.11,0.04 0.03,0.02 0.05,0.06 0.07,0.09l2.34 5.69c0.06,0.15 0.11,0.31 0.15,0.48 0.04,-0.18 0.08,-0.33 0.14,-0.48l2.33 -5.69c0.02,-0.04 0.04,-0.07 0.07,-0.09 0.03,-0.03 0.07,-0.04 0.11,-0.04l0.39 0 -2.83 6.86 -0.44 0 -2.83 -6.86z"/>
   <polygon id="32" class="fil6" points="98.59,206.75 98.09,206.75 98.09,199.89 98.59,199.89 "/>
   <path id="33" class="fil6" d="M104.13 200.73c-0.03,0.06 -0.07,0.08 -0.13,0.08 -0.04,0 -0.09,-0.03 -0.16,-0.09 -0.07,-0.06 -0.16,-0.13 -0.27,-0.2 -0.11,-0.07 -0.25,-0.14 -0.42,-0.2 -0.17,-0.06 -0.38,-0.09 -0.63,-0.09 -0.25,0 -0.47,0.04 -0.66,0.11 -0.19,0.07 -0.35,0.17 -0.48,0.29 -0.13,0.12 -0.22,0.27 -0.29,0.43 -0.07,0.16 -0.1,0.33 -0.1,0.51 0,0.23 0.05,0.42 0.15,0.58 0.1,0.15 0.23,0.28 0.39,0.39 0.16,0.11 0.35,0.2 0.55,0.27 0.21,0.07 0.42,0.15 0.63,0.22 0.22,0.07 0.43,0.15 0.63,0.23 0.2,0.09 0.39,0.19 0.55,0.32 0.16,0.13 0.29,0.29 0.39,0.48 0.1,0.19 0.15,0.43 0.15,0.71 0,0.29 -0.05,0.56 -0.15,0.81 -0.1,0.25 -0.24,0.47 -0.43,0.66 -0.19,0.19 -0.41,0.33 -0.69,0.44 -0.27,0.11 -0.58,0.16 -0.93,0.16 -0.45,0 -0.84,-0.08 -1.17,-0.24 -0.33,-0.16 -0.61,-0.38 -0.86,-0.66l0.14 -0.21c0.04,-0.05 0.08,-0.07 0.13,-0.07 0.03,0 0.07,0.02 0.11,0.06 0.05,0.04 0.1,0.08 0.16,0.14 0.06,0.06 0.14,0.12 0.23,0.18 0.09,0.07 0.19,0.13 0.31,0.18 0.12,0.06 0.26,0.11 0.41,0.14 0.15,0.04 0.33,0.06 0.53,0.06 0.27,0 0.51,-0.04 0.73,-0.12 0.21,-0.08 0.39,-0.19 0.54,-0.34 0.15,-0.14 0.26,-0.31 0.34,-0.51 0.08,-0.2 0.12,-0.4 0.12,-0.63 0,-0.24 -0.05,-0.44 -0.15,-0.6 -0.1,-0.16 -0.23,-0.29 -0.39,-0.39 -0.16,-0.11 -0.34,-0.19 -0.55,-0.26 -0.2,-0.07 -0.42,-0.14 -0.63,-0.21 -0.22,-0.07 -0.43,-0.14 -0.63,-0.23 -0.21,-0.08 -0.39,-0.19 -0.55,-0.32 -0.16,-0.13 -0.29,-0.29 -0.39,-0.49 -0.1,-0.2 -0.15,-0.44 -0.15,-0.73 0,-0.23 0.04,-0.45 0.13,-0.66 0.09,-0.21 0.22,-0.4 0.38,-0.57 0.17,-0.16 0.38,-0.29 0.62,-0.39 0.25,-0.1 0.53,-0.15 0.84,-0.15 0.36,0 0.68,0.06 0.96,0.17 0.28,0.11 0.54,0.29 0.77,0.52l-0.12 0.22z"/>
   <polygon id="34" class="fil6" points="110.36,199.89 110.36,200.31 107.95,200.31 107.95,206.75 107.46,206.75 107.46,200.31 105.03,200.31 105.03,199.89 "/>
   <path id="35" class="fil6" d="M117.07 203.32c0,0.53 -0.08,1.01 -0.24,1.44 -0.16,0.43 -0.38,0.8 -0.67,1.11 -0.29,0.31 -0.63,0.54 -1.03,0.71 -0.4,0.17 -0.85,0.25 -1.33,0.25 -0.48,0 -0.92,-0.08 -1.32,-0.25 -0.4,-0.17 -0.75,-0.4 -1.03,-0.71 -0.29,-0.31 -0.51,-0.67 -0.67,-1.11 -0.16,-0.43 -0.24,-0.91 -0.24,-1.44 0,-0.53 0.08,-1.01 0.24,-1.44 0.16,-0.43 0.38,-0.8 0.67,-1.11 0.29,-0.31 0.63,-0.54 1.03,-0.71 0.4,-0.17 0.84,-0.25 1.32,-0.25 0.49,0 0.93,0.08 1.33,0.25 0.4,0.17 0.74,0.4 1.03,0.71 0.29,0.31 0.51,0.68 0.67,1.11 0.16,0.43 0.24,0.91 0.24,1.44zm-0.51 -0c0,-0.48 -0.07,-0.91 -0.2,-1.29 -0.13,-0.38 -0.32,-0.71 -0.56,-0.97 -0.24,-0.27 -0.53,-0.47 -0.87,-0.61 -0.34,-0.14 -0.71,-0.21 -1.13,-0.21 -0.41,0 -0.78,0.07 -1.11,0.21 -0.34,0.14 -0.63,0.34 -0.87,0.61 -0.24,0.26 -0.43,0.59 -0.57,0.97 -0.13,0.38 -0.2,0.81 -0.2,1.29 0,0.48 0.07,0.91 0.2,1.29 0.13,0.38 0.32,0.7 0.57,0.97 0.24,0.27 0.53,0.47 0.87,0.61 0.34,0.14 0.71,0.21 1.11,0.21 0.41,0 0.79,-0.07 1.13,-0.21 0.34,-0.14 0.63,-0.34 0.87,-0.61 0.24,-0.27 0.43,-0.59 0.56,-0.97 0.13,-0.38 0.2,-0.81 0.2,-1.29z"/>
   <path id="36" class="fil6" d="M119.33 203.65l0 3.1 -0.49 0 0 -6.86 1.75 0c0.79,0 1.38,0.15 1.77,0.46 0.39,0.31 0.59,0.75 0.59,1.34 0,0.26 -0.04,0.5 -0.14,0.72 -0.09,0.22 -0.22,0.41 -0.39,0.57 -0.17,0.16 -0.37,0.3 -0.61,0.4 -0.24,0.11 -0.51,0.18 -0.81,0.21 0.08,0.05 0.15,0.11 0.21,0.19l2.37 2.97 -0.43 0c-0.05,0 -0.1,-0.01 -0.13,-0.03 -0.04,-0.02 -0.07,-0.05 -0.11,-0.1l-2.2 -2.78c-0.06,-0.07 -0.11,-0.12 -0.18,-0.15 -0.06,-0.03 -0.16,-0.04 -0.29,-0.04l-0.9 0zm0 -0.36l1.19 0c0.3,0 0.58,-0.04 0.82,-0.11 0.24,-0.07 0.44,-0.18 0.61,-0.31 0.17,-0.14 0.29,-0.3 0.38,-0.49 0.09,-0.19 0.13,-0.41 0.13,-0.65 0,-0.49 -0.16,-0.85 -0.48,-1.09 -0.32,-0.24 -0.78,-0.36 -1.4,-0.36l-1.25 0 0 3z"/>
   <polygon id="37" class="fil6" points="125.48,206.75 124.98,206.75 124.98,199.89 125.48,199.89 "/>
   <path id="38" class="fil6" d="M132.86 206.75l-0.38 0c-0.05,0 -0.08,-0.01 -0.11,-0.04 -0.03,-0.02 -0.05,-0.05 -0.07,-0.09l-0.81 -1.99 -3.37 0 -0.8 1.99c-0.01,0.04 -0.04,0.07 -0.07,0.09 -0.03,0.03 -0.07,0.04 -0.12,0.04l-0.38 0 2.81 -6.86 0.49 0 2.81 6.86zm-4.59 -2.48l3.07 0 -1.4 -3.47c-0.02,-0.05 -0.04,-0.12 -0.07,-0.19 -0.02,-0.07 -0.05,-0.14 -0.07,-0.22 -0.02,0.08 -0.05,0.15 -0.07,0.22 -0.02,0.07 -0.04,0.13 -0.07,0.19l-1.4 3.46z"/>
   <path id="39" class="fil6" d="M55.34 214.94c0,0.53 -0.08,1.01 -0.24,1.43 -0.16,0.42 -0.38,0.78 -0.67,1.08 -0.29,0.3 -0.63,0.53 -1.03,0.68 -0.4,0.16 -0.85,0.24 -1.33,0.24l-2.5 0 0 -6.86 2.5 0c0.49,0 0.93,0.08 1.33,0.24 0.4,0.16 0.74,0.39 1.03,0.68 0.29,0.3 0.51,0.66 0.67,1.08 0.16,0.42 0.24,0.9 0.24,1.42zm-0.51 0c0,-0.48 -0.07,-0.9 -0.2,-1.28 -0.13,-0.37 -0.32,-0.69 -0.56,-0.95 -0.24,-0.26 -0.53,-0.46 -0.87,-0.59 -0.34,-0.14 -0.71,-0.2 -1.13,-0.2l-2 0 0 6.05 2 0c0.41,0 0.79,-0.07 1.13,-0.2 0.34,-0.13 0.63,-0.33 0.87,-0.59 0.24,-0.26 0.43,-0.57 0.56,-0.95 0.13,-0.37 0.2,-0.8 0.2,-1.28z"/>
   <polygon id="40" class="fil6" points="61.05,211.52 61.05,211.93 57.44,211.93 57.44,214.71 60.45,214.71 60.45,215.11 57.44,215.11 57.44,217.96 61.05,217.96 61.05,218.38 56.94,218.38 56.94,211.52 "/>
   <path id="41" class="fil6" d="M63.59 211.52l0.39 0c0.04,0 0.08,0.01 0.11,0.04 0.03,0.02 0.05,0.06 0.07,0.09l2.34 5.69c0.06,0.15 0.11,0.31 0.15,0.48 0.04,-0.18 0.08,-0.33 0.14,-0.48l2.33 -5.69c0.02,-0.04 0.04,-0.07 0.07,-0.09 0.03,-0.03 0.07,-0.04 0.11,-0.04l0.39 0 -2.83 6.86 -0.44 0 -2.83 -6.86z"/>
   <polygon id="42" class="fil6" points="74.9,211.52 74.9,211.93 71.29,211.93 71.29,214.71 74.29,214.71 74.29,215.11 71.29,215.11 71.29,217.96 74.9,217.96 74.9,218.38 70.79,218.38 70.79,211.52 "/>
   <path id="43" class="fil6" d="M77.19 218.38l-0.5 0 0 -6.86 0.5 0 0 6.86zm1.16 -8.58l-1.42 1.05c-0.03,0.02 -0.06,0.04 -0.09,0.05 -0.03,0.01 -0.06,0.01 -0.1,0.01l-0.34 0 1.1 -1c0.05,-0.04 0.09,-0.07 0.13,-0.09 0.04,-0.01 0.1,-0.02 0.17,-0.02l0.55 0z"/>
   <path id="44" class="fil6" d="M84.4 217.22c0.03,0 0.06,0.01 0.08,0.04l0.19 0.21c-0.14,0.15 -0.3,0.29 -0.47,0.41 -0.17,0.12 -0.35,0.22 -0.55,0.31 -0.2,0.09 -0.42,0.15 -0.65,0.2 -0.24,0.05 -0.5,0.07 -0.78,0.07 -0.48,0 -0.91,-0.08 -1.31,-0.25 -0.4,-0.17 -0.74,-0.4 -1.02,-0.71 -0.28,-0.31 -0.5,-0.67 -0.66,-1.11 -0.16,-0.43 -0.24,-0.91 -0.24,-1.45 0,-0.52 0.08,-0.99 0.25,-1.42 0.16,-0.43 0.39,-0.8 0.69,-1.11 0.3,-0.31 0.65,-0.55 1.06,-0.72 0.41,-0.17 0.87,-0.25 1.36,-0.25 0.25,0 0.48,0.02 0.68,0.05 0.21,0.04 0.4,0.09 0.58,0.16 0.18,0.07 0.35,0.16 0.5,0.26 0.16,0.1 0.31,0.22 0.47,0.36l-0.15 0.22c-0.03,0.04 -0.07,0.06 -0.12,0.06 -0.03,0 -0.07,-0.02 -0.11,-0.05 -0.04,-0.03 -0.1,-0.08 -0.17,-0.13 -0.07,-0.05 -0.15,-0.11 -0.25,-0.17 -0.1,-0.06 -0.22,-0.11 -0.35,-0.16 -0.13,-0.05 -0.29,-0.09 -0.47,-0.13 -0.18,-0.03 -0.38,-0.05 -0.61,-0.05 -0.42,0 -0.8,0.07 -1.15,0.22 -0.35,0.14 -0.65,0.35 -0.9,0.62 -0.25,0.27 -0.45,0.59 -0.59,0.97 -0.14,0.38 -0.21,0.81 -0.21,1.28 0,0.49 0.07,0.92 0.21,1.3 0.14,0.38 0.33,0.7 0.58,0.97 0.25,0.26 0.54,0.46 0.87,0.61 0.33,0.14 0.7,0.21 1.09,0.21 0.25,0 0.47,-0.02 0.66,-0.05 0.19,-0.03 0.37,-0.08 0.53,-0.15 0.16,-0.06 0.31,-0.14 0.45,-0.24 0.14,-0.09 0.28,-0.2 0.41,-0.33 0.02,-0.01 0.03,-0.02 0.05,-0.03 0.01,-0.01 0.03,-0.01 0.05,-0.01z"/>
   <path id="45" class="fil6" d="M88.77 218.03c0.33,0 0.62,-0.06 0.88,-0.17 0.26,-0.11 0.48,-0.27 0.66,-0.48 0.18,-0.2 0.32,-0.44 0.42,-0.72 0.09,-0.28 0.14,-0.57 0.14,-0.9l0 -4.25 0.49 0 0 4.25c0,0.38 -0.06,0.73 -0.18,1.06 -0.12,0.33 -0.29,0.62 -0.52,0.86 -0.22,0.24 -0.5,0.44 -0.82,0.57 -0.32,0.14 -0.68,0.21 -1.08,0.21 -0.4,0 -0.76,-0.07 -1.08,-0.21 -0.32,-0.14 -0.59,-0.33 -0.82,-0.57 -0.22,-0.24 -0.4,-0.53 -0.52,-0.86 -0.12,-0.33 -0.18,-0.68 -0.18,-1.06l0 -4.25 0.5 0 0 4.24c0,0.32 0.05,0.62 0.14,0.9 0.09,0.28 0.23,0.52 0.41,0.72 0.18,0.2 0.4,0.36 0.66,0.48 0.26,0.12 0.55,0.18 0.88,0.18z"/>
   <polygon id="46" class="fil6" points="93.83,217.95 97.08,217.95 97.08,218.38 93.34,218.38 93.34,211.52 93.83,211.52 "/>
   <path id="47" class="fil6" d="M104.02 214.95c0,0.53 -0.08,1.01 -0.24,1.44 -0.16,0.43 -0.38,0.8 -0.67,1.11 -0.29,0.31 -0.63,0.54 -1.03,0.71 -0.4,0.17 -0.85,0.25 -1.33,0.25 -0.48,0 -0.92,-0.08 -1.32,-0.25 -0.4,-0.17 -0.75,-0.4 -1.03,-0.71 -0.29,-0.31 -0.51,-0.67 -0.67,-1.11 -0.16,-0.43 -0.24,-0.91 -0.24,-1.44 0,-0.53 0.08,-1.01 0.24,-1.44 0.16,-0.43 0.38,-0.8 0.67,-1.11 0.29,-0.31 0.63,-0.54 1.03,-0.71 0.4,-0.17 0.84,-0.25 1.32,-0.25 0.49,0 0.93,0.08 1.33,0.25 0.4,0.17 0.74,0.4 1.03,0.71 0.29,0.31 0.51,0.68 0.67,1.11 0.16,0.43 0.24,0.91 0.24,1.44zm-0.51 -0c0,-0.48 -0.07,-0.91 -0.2,-1.29 -0.13,-0.38 -0.32,-0.71 -0.56,-0.97 -0.24,-0.27 -0.53,-0.47 -0.87,-0.61 -0.34,-0.14 -0.71,-0.21 -1.13,-0.21 -0.41,0 -0.78,0.07 -1.11,0.21 -0.34,0.14 -0.63,0.34 -0.87,0.61 -0.24,0.26 -0.43,0.59 -0.57,0.97 -0.13,0.38 -0.2,0.81 -0.2,1.29 0,0.48 0.07,0.91 0.2,1.29 0.13,0.38 0.32,0.7 0.57,0.97 0.24,0.27 0.53,0.47 0.87,0.61 0.34,0.14 0.71,0.21 1.11,0.21 0.41,0 0.79,-0.07 1.13,-0.21 0.34,-0.14 0.63,-0.34 0.87,-0.61 0.24,-0.27 0.43,-0.59 0.56,-0.97 0.13,-0.38 0.2,-0.81 0.2,-1.29z"/>
   <path id="48" class="fil6" d="M108.95 212.36c-0.03,0.06 -0.07,0.08 -0.13,0.08 -0.04,0 -0.09,-0.03 -0.16,-0.09 -0.07,-0.06 -0.16,-0.13 -0.27,-0.2 -0.11,-0.07 -0.25,-0.14 -0.42,-0.2 -0.17,-0.06 -0.38,-0.09 -0.63,-0.09 -0.25,0 -0.47,0.04 -0.66,0.11 -0.19,0.07 -0.35,0.17 -0.48,0.29 -0.13,0.12 -0.22,0.27 -0.29,0.43 -0.07,0.16 -0.1,0.33 -0.1,0.51 0,0.23 0.05,0.42 0.15,0.58 0.1,0.15 0.23,0.28 0.39,0.39 0.16,0.11 0.35,0.2 0.55,0.27 0.21,0.07 0.42,0.15 0.63,0.22 0.22,0.07 0.43,0.15 0.63,0.23 0.2,0.09 0.39,0.19 0.55,0.32 0.16,0.13 0.29,0.29 0.39,0.48 0.1,0.19 0.15,0.43 0.15,0.71 0,0.29 -0.05,0.56 -0.15,0.81 -0.1,0.25 -0.24,0.47 -0.43,0.66 -0.19,0.19 -0.41,0.33 -0.69,0.44 -0.27,0.11 -0.58,0.16 -0.93,0.16 -0.45,0 -0.84,-0.08 -1.17,-0.24 -0.33,-0.16 -0.61,-0.38 -0.86,-0.66l0.14 -0.21c0.04,-0.05 0.08,-0.07 0.13,-0.07 0.03,0 0.07,0.02 0.11,0.06 0.05,0.04 0.1,0.08 0.16,0.14 0.06,0.06 0.14,0.12 0.23,0.18 0.09,0.07 0.19,0.13 0.31,0.18 0.12,0.06 0.26,0.11 0.41,0.14 0.15,0.04 0.33,0.06 0.53,0.06 0.27,0 0.51,-0.04 0.73,-0.12 0.21,-0.08 0.39,-0.19 0.54,-0.34 0.15,-0.14 0.26,-0.31 0.34,-0.51 0.08,-0.2 0.12,-0.4 0.12,-0.63 0,-0.24 -0.05,-0.44 -0.15,-0.6 -0.1,-0.16 -0.23,-0.29 -0.39,-0.39 -0.16,-0.11 -0.34,-0.19 -0.55,-0.26 -0.2,-0.07 -0.42,-0.14 -0.63,-0.21 -0.22,-0.07 -0.43,-0.14 -0.63,-0.23 -0.21,-0.08 -0.39,-0.19 -0.55,-0.32 -0.16,-0.13 -0.29,-0.29 -0.39,-0.49 -0.1,-0.2 -0.15,-0.44 -0.15,-0.73 0,-0.23 0.04,-0.45 0.13,-0.66 0.09,-0.21 0.22,-0.4 0.38,-0.57 0.17,-0.16 0.38,-0.29 0.62,-0.39 0.25,-0.1 0.53,-0.15 0.84,-0.15 0.36,0 0.68,0.06 0.96,0.17 0.28,0.11 0.54,0.29 0.77,0.52l-0.12 0.22z"/>
  </g>
 </g>
</svg>
