<?xml version="1.0" encoding="UTF-8"?>
<!DOCTYPE svg PUBLIC "-//W3C//DTD SVG 1.1//EN" "http://www.w3.org/Graphics/SVG/1.1/DTD/svg11.dtd">
<!-- Creator: CorelDRAW 2018 (64 Bit Versão de avaliação) -->
<svg xmlns="http://www.w3.org/2000/svg" xml:space="preserve" width="47.0396mm" height="51.6529mm" version="1.1" style="shape-rendering:geometricPrecision; text-rendering:geometricPrecision; image-rendering:optimizeQuality; fill-rule:evenodd; clip-rule:evenodd"
viewBox="0 0 1631.45 1791.45"
 xmlns:xlink="http://www.w3.org/1999/xlink">
 <defs>
  <style type="text/css">
   <![CDATA[
    .fil5 {fill:none}
    .fil2 {fill:#08A045}
    .fil4 {fill:#0B6E4F}
    .fil3 {fill:#6BBF59}
    .fil1 {fill:#FED141}
    .fil0 {fill:white}
    .fil6 {fill:white;fill-rule:nonzero}
   ]]>
  </style>
    <clipPath id="id0">
     <path d="M1072.85 1642.05c292.5,0 529.62,-237.12 529.62,-529.62 0,-292.5 -237.12,-529.63 -529.62,-529.63 -292.5,0 -529.63,237.12 -529.63,529.63 0,292.5 237.12,529.62 529.63,529.62z"/>
    </clipPath>
 </defs>
 <g id="Camada_x0020_1">
  <metadata id="CorelCorpID_0Corel-Layer"/>
  <g id="_1685704565296">
   <path class="fil0" d="M1202.17 203.89c470.85,271.85 399.43,148.14 399.43,691.84 0,543.7 71.41,419.99 -399.43,691.84 -470.85,271.84 -328.02,271.84 -798.87,0 -470.85,-271.85 -399.43,-148.14 -399.43,-691.84 0,-543.7 -71.41,-419.99 399.43,-691.84 470.85,-271.85 328.02,-271.85 798.87,0z"/>
   <path class="fil1" d="M1175.99 250.29c439.99,254.02 373.25,138.44 373.25,646.49 0,4.9 0.02,9.65 0.03,14.43l0 0.44 -1493.06 0 0.01 -1.79c0.01,-4.33 0.02,-8.64 0.02,-13.09 0,-508.04 -66.73,-392.47 373.25,-646.49 439.99,-254.02 306.52,-254.02 746.5,0z"/>
   <path class="fil2" d="M1555.43 923.97c1.26,490.81 62.33,380.11 -373.28,631.62 -439.98,254.02 -306.52,254.02 -746.5,0 -435.61,-251.5 -374.54,-140.81 -373.28,-631.62l1493.06 0z"/>
   <path class="fil3" d="M1362.02 768.51l-1119.75 0 0 -284.54c0,-103.07 83.55,-186.63 186.62,-186.63 103.07,0 186.62,83.56 186.62,186.63 0,-103.07 83.56,-186.63 186.63,-186.63 103.07,0 186.62,83.56 186.62,186.63 0,-103.07 83.55,-186.63 186.62,-186.63 103.07,0 186.63,83.56 186.63,186.63l0 284.54zm-186.63 -492.97c45.09,0 81.65,-36.56 81.65,-81.65 0,-45.09 -36.56,-81.65 -81.65,-81.65 -45.09,0 -81.65,36.56 -81.65,81.65 0,45.09 36.56,81.65 81.65,81.65zm-373.25 0c45.09,0 81.65,-36.56 81.65,-81.65 0,-45.09 -36.56,-81.65 -81.65,-81.65 -45.09,0 -81.65,36.56 -81.65,81.65 0,45.09 36.56,81.65 81.65,81.65zm-373.25 0c45.09,0 81.65,-36.56 81.65,-81.65 0,-45.09 -36.56,-81.65 -81.65,-81.65 -45.09,0 -81.65,36.56 -81.65,81.65 0,45.09 36.56,81.65 81.65,81.65z"/>
   <path class="fil2" d="M1362.61 465.03c56.63,0 102.54,-43.46 102.54,-97.08 0,-53.61 -45.91,-97.07 -102.54,-97.07 -56.63,0 -102.54,43.46 -102.54,97.07 0,53.62 45.91,97.08 102.54,97.08zm-1306.38 501.63l0 -306.59c0,-97.58 83.55,-176.68 186.62,-176.68 103.08,0 186.63,79.1 186.63,176.68 0,-97.58 83.56,-176.68 186.63,-176.68 103.07,0 186.62,79.1 186.62,176.68 0,-97.58 83.55,-176.68 186.62,-176.68 103.07,0 186.63,79.1 186.63,176.68 0,-97.58 83.55,-176.68 186.63,-176.68 103.07,0 186.62,79.1 186.62,176.68l0 306.59 -1493 0zm186.62 -501.63c56.63,0 102.54,-43.46 102.54,-97.08 0,-53.61 -45.91,-97.07 -102.54,-97.07 -56.63,0 -102.54,43.46 -102.54,97.07 0,53.62 45.91,97.08 102.54,97.08zm373.26 0c56.63,0 102.54,-43.46 102.54,-97.08 0,-53.61 -45.91,-97.07 -102.54,-97.07 -56.63,0 -102.54,43.46 -102.54,97.07 0,53.62 45.91,97.08 102.54,97.08zm373.25 0c56.63,0 102.54,-43.46 102.54,-97.08 0,-53.61 -45.91,-97.07 -102.54,-97.07 -56.63,0 -102.54,43.46 -102.54,97.07 0,53.62 45.91,97.08 102.54,97.08z"/>
   <path class="fil0" d="M976.52 1030.47c45.26,-45.26 118.65,-45.26 163.91,0 45.26,45.26 45.26,118.65 0,163.91l-517.47 517.47c-45.26,45.26 -118.65,45.26 -163.91,0 -45.26,-45.26 -45.26,-118.65 0,-163.91l517.47 -517.47z"/>
   <path class="fil1" d="M671.7 851.75c32.63,2.31 64.18,5.81 94.65,10.51 4.25,0.68 8.5,1.39 12.75,2.12 1.57,0.19 3.15,0.39 4.72,0.59 10.74,1.87 19.36,6.28 25.85,13.22 3.23,3.4 5.95,7.41 8.14,12.04l64.33 130.28c7.17,12.33 12.2,20.15 15.1,23.48l38.13 43.31c2.16,2.48 4.12,5.03 5.9,7.67 11.03,15.97 15.32,34.77 12.86,56.41 -0.95,9.46 -1.93,18.62 -2.95,27.5 -0.05,0.63 -0.08,1.26 -0.12,1.88 -2.12,17.92 -4.4,34.64 -6.85,50.15 0,48.38 0,96.77 0,145.15 -0.04,6.76 -2.45,12.5 -7.2,17.23 -4.31,4.34 -9.42,6.7 -15.34,7.08l-58.19 -0c-5.91,-0.38 -10.98,-2.74 -15.23,-7.08 -4.69,-4.59 -7.12,-10.13 -7.31,-16.64l0 -47.56c-82.97,5.69 -166.06,8.52 -249.27,8.5 -62.89,0.01 -125.72,-1.6 -188.48,-4.84 -5.19,-0.26 -10.38,-0.53 -15.58,-0.83 -15.11,-0.86 -30.22,-1.8 -45.32,-2.83l0 47.56c-0.15,6.51 -2.55,12.05 -7.2,16.64 -4.28,4.34 -9.39,6.7 -15.34,7.08l-58.18 0c-5.96,-0.38 -11.11,-2.74 -15.46,-7.08 -4.72,-4.73 -7.08,-10.47 -7.08,-17.23 0,-48.39 0,-96.77 0,-145.15 -2.45,-15.51 -4.73,-32.24 -6.84,-50.15 -0.04,-0.63 -0.08,-1.26 -0.12,-1.89 -1.02,-8.88 -2,-18.04 -2.95,-27.5 -2.46,-21.63 1.83,-40.44 12.87,-56.41 1.77,-2.64 3.74,-5.19 5.9,-7.67l38.12 -43.3c2.94,-3.34 8.02,-11.16 15.23,-23.49l64.32 -130.28c2.16,-4.62 4.83,-8.64 8.03,-12.04 6.48,-6.94 15.1,-11.35 25.85,-13.22 1.53,-0.2 3.07,-0.4 4.61,-0.59 4.28,-0.73 8.57,-1.44 12.87,-2.12 30.47,-4.7 62.03,-8.2 94.65,-10.51 46.55,-3.5 113.62,-3.53 160.15,0zm-118.73 38.24c-0.75,0.03 -1.49,0.07 -2.24,0.12l-29.27 1.18c-2.15,0.2 -4.27,0.4 -6.38,0.59 -22.55,1.37 -44.66,3.26 -66.33,5.67 -7.09,0.85 -14.13,1.75 -21.13,2.71 -0.59,0.04 -1.18,0.08 -1.77,0.12 -4.05,0.62 -7.71,1.72 -10.97,3.31 -6.7,3.03 -11.82,7.98 -15.34,14.87l-38.24 81.31c11.33,-0.6 22.66,-1.14 33.99,-1.65 65.51,-2.9 130.94,-4.39 196.27,-4.48 65.29,0.1 130.68,1.59 196.15,4.48 11.33,0.51 22.66,1.06 34,1.65l-38.36 -81.31c-3.45,-6.88 -8.48,-11.84 -15.11,-14.87 -3.3,-1.58 -7,-2.68 -11.09,-3.31 -0.55,-0.04 -1.11,-0.08 -1.65,-0.12 -6.96,-0.96 -13.96,-1.86 -21.01,-2.71 -21.74,-2.41 -43.93,-4.3 -66.56,-5.67 -2.07,-0.19 -4.15,-0.38 -6.26,-0.59l-29.27 -1.18c-0.75,-0.04 -1.49,-0.08 -2.24,-0.12 -0.4,-0.05 -0.78,-0.08 -1.18,-0.12 -11.96,-0.32 -24.43,-0.55 -37.41,-0.71 -13.03,0.15 -25.54,0.38 -37.53,0.71 -0.35,0.04 -0.71,0.08 -1.06,0.12zm-92.65 266.94c36.31,36.33 80.05,54.5 131.24,54.52 0.91,0 1.81,0 2.71,0l0.12 0c49.97,-0.63 92.81,-18.8 128.53,-54.52 5.74,-5.75 11.01,-11.69 15.82,-17.82l-294.35 0c4.84,6.13 10.15,12.07 15.93,17.82zm-107.52 -51.69c-7.96,-8.01 -17.59,-12.02 -28.91,-12.03 -11.41,0.01 -21.12,4.02 -29.15,12.03 -8.02,7.95 -12.03,17.59 -12.04,28.91 0.01,11.4 4.02,21.11 12.04,29.15 8.03,8.02 17.75,12.03 29.15,12.04 11.32,-0.02 20.96,-4.02 28.91,-12.04 8.05,-8.03 12.11,-17.75 12.16,-29.15 -0.05,-11.33 -4.11,-20.96 -12.16,-28.91zm477.75 0c-8.06,7.95 -12.11,17.59 -12.16,28.91 0.05,11.4 4.1,21.11 12.16,29.15 7.95,8.02 17.59,12.03 28.92,12.04 11.4,-0.02 21.11,-4.02 29.15,-12.04 8.02,-8.03 12.02,-17.75 12.04,-29.15 -0.01,-11.33 -4.02,-20.96 -12.04,-28.91 -8.03,-8.01 -17.75,-12.02 -29.15,-12.03 -11.33,0.01 -20.97,4.02 -28.92,12.03z"/>
   <path class="fil1" d="M1072.85 1642.05c292.5,0 529.62,-237.12 529.62,-529.62 0,-292.5 -237.12,-529.63 -529.62,-529.63 -292.5,0 -529.63,237.12 -529.63,529.63 0,292.5 237.12,529.62 529.63,529.62z"/>
   <g style="clip-path:url(#id0)">
    <g>
     <path id="1" class="fil4" d="M863.78 669.75c53.47,3.78 105.18,9.52 155.13,17.22 6.97,1.11 13.93,2.27 20.89,3.48 2.58,0.32 5.16,0.64 7.74,0.97 17.61,3.07 31.73,10.29 42.36,21.67 5.3,5.57 9.75,12.15 13.34,19.73l105.42 213.52c11.74,20.2 19.99,33.03 24.76,38.49l62.48 70.98c3.53,4.06 6.75,8.24 9.67,12.57 18.08,26.18 25.11,56.99 21.08,92.45 -1.56,15.5 -3.17,30.52 -4.83,45.07 -0.08,1.04 -0.14,2.06 -0.2,3.09 -3.46,29.37 -7.2,56.77 -11.22,82.19 0,79.3 0,158.6 0,237.89 -0.07,11.07 -4.01,20.49 -11.8,28.24 -7.06,7.11 -15.44,10.98 -25.14,11.6l-95.36 -0c-9.69,-0.63 -18,-4.49 -24.95,-11.6 -7.69,-7.52 -11.68,-16.61 -11.99,-27.27l0 -77.94c-135.98,9.33 -272.16,13.97 -408.53,13.93 -103.08,0.02 -206.05,-2.63 -308.91,-7.94 -8.51,-0.43 -17.02,-0.88 -25.53,-1.35 -24.76,-1.41 -49.52,-2.95 -74.28,-4.64l0 77.94c-0.25,10.67 -4.19,19.76 -11.8,27.27 -7.01,7.11 -15.4,10.98 -25.14,11.6l-95.36 0c-9.77,-0.63 -18.22,-4.49 -25.34,-11.6 -7.73,-7.75 -11.59,-17.16 -11.6,-28.24 0,-79.3 0,-158.6 0,-237.89 -4.02,-25.43 -7.75,-52.83 -11.22,-82.19 -0.07,-1.03 -0.13,-2.05 -0.19,-3.09 -1.67,-14.54 -3.28,-29.56 -4.84,-45.07 -4.02,-35.46 3,-66.27 21.09,-92.45 2.91,-4.32 6.13,-8.51 9.67,-12.57l62.48 -70.98c4.82,-5.47 13.14,-18.29 24.95,-38.49l105.42 -213.52c3.53,-7.58 7.92,-14.16 13.16,-19.73 10.63,-11.38 24.74,-18.6 42.36,-21.67 2.51,-0.33 5.03,-0.65 7.55,-0.97 7.02,-1.2 14.04,-2.37 21.08,-3.48 49.94,-7.69 101.66,-13.43 155.13,-17.22 76.29,-5.73 186.21,-5.78 262.48,0zm-194.59 62.67c-1.23,0.06 -2.45,0.12 -3.67,0.19l-47.97 1.94c-3.53,0.34 -7.01,0.66 -10.45,0.97 -36.96,2.24 -73.2,5.34 -108.71,9.28 -11.62,1.39 -23.16,2.88 -34.62,4.45 -0.97,0.07 -1.94,0.14 -2.9,0.2 -6.65,1.02 -12.64,2.82 -17.99,5.42 -10.98,4.97 -19.37,13.09 -25.14,24.37l-62.67 133.26c18.57,-0.98 37.14,-1.88 55.71,-2.71 107.37,-4.74 214.59,-7.19 321.67,-7.35 107.01,0.16 214.17,2.6 321.48,7.35 18.57,0.83 37.14,1.73 55.71,2.71l-62.87 -133.26c-5.65,-11.28 -13.9,-19.4 -24.76,-24.37 -5.41,-2.59 -11.47,-4.4 -18.18,-5.42 -0.91,-0.06 -1.82,-0.13 -2.71,-0.2 -11.4,-1.57 -22.87,-3.05 -34.43,-4.45 -35.64,-3.95 -72,-7.04 -109.09,-9.28 -3.39,-0.31 -6.8,-0.63 -10.26,-0.97l-47.97 -1.94c-1.23,-0.07 -2.45,-0.14 -3.67,-0.19 -0.65,-0.07 -1.29,-0.14 -1.94,-0.2 -19.6,-0.52 -40.04,-0.91 -61.32,-1.16 -21.34,0.25 -41.85,0.63 -61.51,1.16 -0.58,0.06 -1.17,0.12 -1.74,0.2zm-151.84 437.49c59.5,59.54 131.2,89.33 215.09,89.35 1.48,0 2.97,0 4.45,0l0.19 0c81.9,-1.04 152.12,-30.82 210.65,-89.35 9.41,-9.43 18.04,-19.16 25.91,-29.21l-482.41 0c7.93,10.04 16.64,19.78 26.11,29.21zm-176.21 -84.72c-13.04,-13.13 -28.83,-19.71 -47.39,-19.73 -18.69,0.02 -34.62,6.59 -47.78,19.73 -13.14,13.03 -19.71,28.82 -19.73,47.39 0.02,18.68 6.59,34.61 19.73,47.77 13.16,13.13 29.08,19.71 47.78,19.73 18.56,-0.02 34.35,-6.59 47.39,-19.73 13.2,-13.16 19.85,-29.09 19.92,-47.77 -0.08,-18.57 -6.72,-34.36 -19.92,-47.39zm783 0c-13.21,13.03 -19.85,28.82 -19.93,47.39 0.08,18.68 6.72,34.61 19.93,47.77 13.03,13.13 28.82,19.71 47.39,19.73 18.68,-0.02 34.61,-6.59 47.77,-19.73 13.13,-13.16 19.71,-29.09 19.73,-47.77 -0.02,-18.56 -6.59,-34.35 -19.73,-47.39 -13.17,-13.13 -29.09,-19.71 -47.77,-19.73 -18.57,0.02 -34.36,6.6 -47.39,19.73z"/>
    </g>
   </g>
   <path class="fil5" d="M1072.85 1642.05c292.5,0 529.62,-237.12 529.62,-529.62 0,-292.5 -237.12,-529.63 -529.62,-529.63 -292.5,0 -529.63,237.12 -529.63,529.63 0,292.5 237.12,529.62 529.63,529.62z"/>
   <path class="fil6" d="M1072.85 1613.07c138.25,0 263.42,-56.04 354.01,-146.63 90.6,-90.59 146.63,-215.76 146.63,-354.01 0,-138.25 -56.04,-263.42 -146.63,-354.01 -90.59,-90.6 -215.76,-146.64 -354.01,-146.64 -138.25,0 -263.42,56.04 -354.01,146.64 -90.6,90.59 -146.63,215.76 -146.63,354.01 0,138.25 56.04,263.42 146.63,354.01 90.59,90.6 215.76,146.63 354.01,146.63zm394.99 -105.66c-101.09,101.09 -240.74,163.61 -394.99,163.61 -154.25,0 -293.9,-62.53 -394.99,-163.61 -101.09,-101.09 -163.61,-240.74 -163.61,-394.99 0,-154.25 62.53,-293.91 163.61,-394.99 101.09,-101.09 240.74,-163.61 394.99,-163.61 154.25,0 293.9,62.53 394.99,163.61 101.09,101.08 163.61,240.74 163.61,394.99 0,154.25 -62.53,293.9 -163.61,394.99z"/>
  </g>
 </g>
</svg>
